<svg xmlns="http://www.w3.org/2000/svg" width="960" height="170" viewBox="0 0 960 170" role="img" aria-label="Connector legend scale preserved">
<defs>
  <linearGradient id="rackFace" x1="0" y1="0" x2="0" y2="1"><stop offset="0" stop-color="#343535"/><stop offset="0.48" stop-color="#222323"/><stop offset="1" stop-color="#111214"/></linearGradient>
  <linearGradient id="rackEdge" x1="0" y1="0" x2="0" y2="1"><stop offset="0" stop-color="#777"/><stop offset="0.18" stop-color="#272727"/><stop offset="1" stop-color="#060606"/></linearGradient>
  <linearGradient id="metal" x1="0" y1="0" x2="1" y2="1"><stop offset="0" stop-color="#e0ddd0"/><stop offset="0.22" stop-color="#71706a"/><stop offset="0.52" stop-color="#202122"/><stop offset="0.83" stop-color="#0b0c0d"/><stop offset="1" stop-color="#7e7a70"/></linearGradient>
  <linearGradient id="blueMetal" x1="0" y1="0" x2="1" y2="1"><stop offset="0" stop-color="#5aa2ff"/><stop offset="0.4" stop-color="#1763c7"/><stop offset="1" stop-color="#07306d"/></linearGradient>
  <linearGradient id="goldPin" x1="0" y1="0" x2="1" y2="1"><stop offset="0" stop-color="#ffe7a6"/><stop offset="0.45" stop-color="#c88c2a"/><stop offset="1" stop-color="#5f3b0d"/></linearGradient>
  <linearGradient id="jackCup" x1="0" y1="0" x2="0" y2="1"><stop offset="0" stop-color="#1e2021"/><stop offset="0.45" stop-color="#060708"/><stop offset="1" stop-color="#000"/></linearGradient>
  <linearGradient id="amberLens" x1="0" y1="0" x2="1" y2="1"><stop offset="0" stop-color="#ffe5a6"/><stop offset="0.38" stop-color="#d99619"/><stop offset="0.72" stop-color="#5d3200"/><stop offset="1" stop-color="#ffbd2d"/></linearGradient>
  <filter id="shadow" x="-25%" y="-25%" width="150%" height="150%"><feDropShadow dx="0" dy="3" stdDeviation="3" flood-color="#000" flood-opacity="0.65"/></filter>
  <filter id="softGlow" x="-70%" y="-70%" width="240%" height="240%"><feGaussianBlur stdDeviation="3" result="b"/><feMerge><feMergeNode in="b"/><feMergeNode in="SourceGraphic"/></feMerge></filter>
</defs>
<rect x="4" y="6" width="952" height="158" rx="8" fill="#151719" stroke="#555"/>
<text x="22" y="38" text-anchor="start" font-family="'Arial Narrow','Roboto Condensed','Helvetica Neue',Arial,sans-serif" font-size="16" font-weight="800" fill="#f2eee4" >CONNECTOR LEGEND</text>
<g transform="translate(70 75) scale(1) translate(-70 -75)" data-v18-reference-scale="1" class="xlr female" data-scale="xlr-large" filter="url(#shadow)">
<circle cx="47.06" cy="55.16" r="4.96" fill="#111" stroke="#5e5b54" stroke-width="1.085"/>
<circle cx="92.94" cy="94.84" r="4.96" fill="#111" stroke="#5e5b54" stroke-width="1.085"/>
<circle cx="70" cy="75" r="31" fill="url(#metal)" stroke="#050505" stroke-width="1.612"/>
<circle cx="70" cy="75" r="26.66" fill="#121314" stroke="#817d72" stroke-width="1.085" opacity="0.9"/>
<circle cx="70" cy="75" r="21.7" fill="url(#jackCup)" stroke="#68645b" stroke-width="1.085"/>
<circle cx="70" cy="75" r="13.95" fill="#070808" stroke="#2f3030" stroke-width="0.806"/>
<path d="M56.36 64.15C65.04 59.5 77.13 59.81 83.95 65.7" stroke="#fff" opacity="0.14" fill="none" stroke-width="1.612"/>
<rect x="61.475" y="46.17" width="17.05" height="5.58" rx="2.79" fill="#c7c0ae" stroke="#302b24" stroke-width="0.62"/>
<text x="70" y="49.964" text-anchor="middle" font-family="'Arial Narrow','Roboto Condensed','Helvetica Neue',Arial,sans-serif" font-size="4.96" font-weight="800" fill="#24221e">PUSH</text>
<circle cx="62.405" cy="70.505" r="3.651" fill="#050505" stroke="#5d5a52" stroke-width="0.775"/>
<circle cx="61.692" cy="69.792" r="1.027" fill="#1c1d1d" opacity="0.75"/>
<circle cx="77.595" cy="70.505" r="3.651" fill="#050505" stroke="#5d5a52" stroke-width="0.775"/>
<circle cx="76.882" cy="69.792" r="1.027" fill="#1c1d1d" opacity="0.75"/>
<circle cx="70" cy="85.075" r="3.651" fill="#050505" stroke="#5d5a52" stroke-width="0.775"/>
<circle cx="69.287" cy="84.362" r="1.027" fill="#1c1d1d" opacity="0.75"/>
<circle cx="48.3" cy="55.78" r="2.635" fill="#050505" stroke="#9b988d" stroke-width="0.868"/>
<path d="M46.403 57.677L50.197 53.883" stroke="#777" stroke-width="0.558"/>
<circle cx="91.7" cy="94.22" r="2.635" fill="#050505" stroke="#9b988d" stroke-width="0.868"/>
<path d="M89.803 96.117L93.597 92.323" stroke="#777" stroke-width="0.558"/>
</g>
<text x="70" y="130" text-anchor="middle" font-family="'Arial Narrow','Roboto Condensed','Helvetica Neue',Arial,sans-serif" font-size="10" font-weight="800" fill="#e8e5da" >XLR FEMALE</text>
<text x="70" y="145" text-anchor="middle" font-family="'Arial Narrow','Roboto Condensed','Helvetica Neue',Arial,sans-serif" font-size="9" font-weight="700" fill="#dcd8c9" >MIC / LINE IN</text>
<g transform="translate(190 75) scale(1) translate(-190 -75)" data-v18-reference-scale="1" class="xlr male" data-scale="xlr-large" filter="url(#shadow)">
<circle cx="167.06" cy="55.16" r="4.96" fill="#111" stroke="#5e5b54" stroke-width="1.085"/>
<circle cx="212.94" cy="94.84" r="4.96" fill="#111" stroke="#5e5b54" stroke-width="1.085"/>
<circle cx="190" cy="75" r="31" fill="url(#metal)" stroke="#050505" stroke-width="1.612"/>
<circle cx="190" cy="75" r="26.66" fill="#121314" stroke="#817d72" stroke-width="1.085" opacity="0.9"/>
<circle cx="190" cy="75" r="21.7" fill="url(#jackCup)" stroke="#68645b" stroke-width="1.085"/>
<circle cx="190" cy="75" r="13.95" fill="#070808" stroke="#2f3030" stroke-width="0.806"/>
<path d="M176.36 64.15C185.04 59.5 197.13 59.81 203.95 65.7" stroke="#fff" opacity="0.14" fill="none" stroke-width="1.612"/>
<rect x="181.475" y="46.17" width="17.05" height="5.58" rx="2.79" fill="#c7c0ae" stroke="#302b24" stroke-width="0.62"/>
<text x="190" y="49.964" text-anchor="middle" font-family="'Arial Narrow','Roboto Condensed','Helvetica Neue',Arial,sans-serif" font-size="4.96" font-weight="800" fill="#24221e">PUSH</text>
<circle cx="182.405" cy="70.505" r="3.023" fill="url(#goldPin)" stroke="#1a1000" stroke-width="0.651"/>
<circle cx="181.749" cy="69.792" r="0.856" fill="#fff0b4" opacity="0.65"/>
<circle cx="197.595" cy="70.505" r="3.023" fill="url(#goldPin)" stroke="#1a1000" stroke-width="0.651"/>
<circle cx="196.939" cy="69.792" r="0.856" fill="#fff0b4" opacity="0.65"/>
<circle cx="190" cy="85.075" r="3.023" fill="url(#goldPin)" stroke="#1a1000" stroke-width="0.651"/>
<circle cx="189.344" cy="84.362" r="0.856" fill="#fff0b4" opacity="0.65"/>
<circle cx="168.3" cy="55.78" r="2.635" fill="#050505" stroke="#9b988d" stroke-width="0.868"/>
<path d="M166.403 57.677L170.197 53.883" stroke="#777" stroke-width="0.558"/>
<circle cx="211.7" cy="94.22" r="2.635" fill="#050505" stroke="#9b988d" stroke-width="0.868"/>
<path d="M209.803 96.117L213.597 92.323" stroke="#777" stroke-width="0.558"/>
</g>
<text x="190" y="130" text-anchor="middle" font-family="'Arial Narrow','Roboto Condensed','Helvetica Neue',Arial,sans-serif" font-size="10" font-weight="800" fill="#e8e5da" >XLR MALE</text>
<text x="190" y="145" text-anchor="middle" font-family="'Arial Narrow','Roboto Condensed','Helvetica Neue',Arial,sans-serif" font-size="9" font-weight="700" fill="#dcd8c9" >LINE OUT</text>
<g class="trs" data-scale="trs-medium" filter="url(#shadow)">
<circle cx="315" cy="75" r="21.0" fill="url(#metal)" stroke="#050505" stroke-width="1.3"/>
<circle cx="315" cy="75" r="14.280000000000001" fill="#090909" stroke="#c9c3b3" stroke-width="1.3"/>
<circle cx="315" cy="75" r="7.140000000000001" fill="#1d1d1c" stroke="#050505"/>
<path d="M305.55 66.6C311.22 62.82,319.2 63.45,324.45 69.12" stroke="#fff" opacity="0.18" fill="none"/>
</g>
<text x="315" y="130" text-anchor="middle" font-family="'Arial Narrow','Roboto Condensed','Helvetica Neue',Arial,sans-serif" font-size="10" font-weight="800" fill="#e8e5da" >1/4” TRS</text>
<text x="315" y="145" text-anchor="middle" font-family="'Arial Narrow','Roboto Condensed','Helvetica Neue',Arial,sans-serif" font-size="9" font-weight="700" fill="#dcd8c9" >BALANCED</text>
<g class="speakon" data-scale="speakon-large" filter="url(#shadow)">
<rect x="416.0" y="46.0" width="58" height="58" rx="7" fill="url(#blueMetal)" stroke="#051128" stroke-width="1.5"/>
<circle cx="445" cy="75" r="19.720000000000002" fill="#071025" stroke="#2e81ff" stroke-width="2"/>
<path d="M445 60.5a14.5 14.5 0 1 0 0 29.0" fill="none" stroke="#050812" stroke-width="7.54" stroke-linecap="round"/>
<rect x="440.94" y="62.24" width="8.120000000000001" height="12.76" rx="2" fill="#2e81ff" opacity="0.65"/>
<circle cx="424.7" cy="54.7" r="2.2" fill="#050505" stroke="#9b988d" stroke-width="1"/><path d="M423.5 55.900000000000006L425.9 53.5" stroke="#777" stroke-width="0.8"/>
<circle cx="465.3" cy="95.3" r="2.2" fill="#050505" stroke="#9b988d" stroke-width="1"/><path d="M464.1 96.5L466.5 94.1" stroke="#777" stroke-width="0.8"/>
</g>

<text x="445" y="130" text-anchor="middle" font-family="'Arial Narrow','Roboto Condensed','Helvetica Neue',Arial,sans-serif" font-size="10" font-weight="800" fill="#e8e5da" >SPEAKON NL4</text>
<text x="445" y="145" text-anchor="middle" font-family="'Arial Narrow','Roboto Condensed','Helvetica Neue',Arial,sans-serif" font-size="9" font-weight="700" fill="#dcd8c9" >SPEAKER OUT</text>
<g class="speakon" data-scale="powercon-large" filter="url(#shadow)">
<rect x="546.0" y="46.0" width="58" height="58" rx="7" fill="url(#blueMetal)" stroke="#051128" stroke-width="1.5"/>
<circle cx="575" cy="75" r="19.720000000000002" fill="#071025" stroke="#2e81ff" stroke-width="2"/>
<path d="M575 60.5a14.5 14.5 0 1 0 0 29.0" fill="none" stroke="#050812" stroke-width="7.54" stroke-linecap="round"/>
<rect x="570.94" y="62.24" width="8.120000000000001" height="12.76" rx="2" fill="#2e81ff" opacity="0.65"/>
<circle cx="554.7" cy="54.7" r="2.2" fill="#050505" stroke="#9b988d" stroke-width="1"/><path d="M553.5 55.900000000000006L555.9000000000001 53.5" stroke="#777" stroke-width="0.8"/>
<circle cx="595.3" cy="95.3" r="2.2" fill="#050505" stroke="#9b988d" stroke-width="1"/><path d="M594.0999999999999 96.5L596.5 94.1" stroke="#777" stroke-width="0.8"/>
</g>

<text x="575" y="130" text-anchor="middle" font-family="'Arial Narrow','Roboto Condensed','Helvetica Neue',Arial,sans-serif" font-size="10" font-weight="800" fill="#e8e5da" >POWERCON TRUE1</text>
<text x="575" y="145" text-anchor="middle" font-family="'Arial Narrow','Roboto Condensed','Helvetica Neue',Arial,sans-serif" font-size="9" font-weight="700" fill="#dcd8c9" >POWER IN/OUT</text>
<g class="rj45" data-scale="rj45-compact" filter="url(#shadow)">
<rect x="682.0" y="58.0" width="46" height="34" rx="3" fill="#111" stroke="#b8b4a8" stroke-width="1.3"/>
<rect x="688.44" y="68.2" width="33.12" height="14.28" fill="#050505" stroke="#333"/>
<rect x="691.2" y="75.34" width="1.61" height="6.12" fill="#d9a946"/><rect x="695.11" y="75.34" width="1.61" height="6.12" fill="#d9a946"/><rect x="699.0200000000001" y="75.34" width="1.61" height="6.12" fill="#d9a946"/><rect x="702.9300000000001" y="75.34" width="1.61" height="6.12" fill="#d9a946"/><rect x="706.84" y="75.34" width="1.61" height="6.12" fill="#d9a946"/><rect x="710.75" y="75.34" width="1.61" height="6.12" fill="#d9a946"/><rect x="714.6600000000001" y="75.34" width="1.61" height="6.12" fill="#d9a946"/>
<circle cx="689.36" cy="85.88" r="3" fill="#9ddb40"/><circle cx="720.64" cy="85.88" r="3" fill="#ffc545"/>
</g>

<text x="705" y="130" text-anchor="middle" font-family="'Arial Narrow','Roboto Condensed','Helvetica Neue',Arial,sans-serif" font-size="10" font-weight="800" fill="#e8e5da" >RJ45</text>
<text x="705" y="145" text-anchor="middle" font-family="'Arial Narrow','Roboto Condensed','Helvetica Neue',Arial,sans-serif" font-size="9" font-weight="700" fill="#dcd8c9" >NETWORK</text>
<g class="bnc" data-scale="bnc-small" filter="url(#shadow)">
<circle cx="825" cy="75" r="19.0" fill="url(#metal)" stroke="#050505" stroke-width="1.2"/>
<circle cx="825" cy="75" r="11.78" fill="#171817" stroke="#d3cec1"/>
<circle cx="825" cy="75" r="4.75" fill="#0a0a0a"/>
<circle cx="825" cy="75" r="1.9000000000000001" fill="#d7d2c5"/>
</g>

<text x="825" y="130" text-anchor="middle" font-family="'Arial Narrow','Roboto Condensed','Helvetica Neue',Arial,sans-serif" font-size="10" font-weight="800" fill="#e8e5da" >BNC</text>
<text x="825" y="145" text-anchor="middle" font-family="'Arial Narrow','Roboto Condensed','Helvetica Neue',Arial,sans-serif" font-size="9" font-weight="700" fill="#dcd8c9" >ANTENNA</text>
</svg>