<svg xmlns="http://www.w3.org/2000/svg" width="1120" height="260" viewBox="0 0 1120 260" role="img" aria-label="LIV-003 FOH console aux and bus outputs">
<defs>
  <linearGradient id="rackFace" x1="0" y1="0" x2="0" y2="1"><stop offset="0" stop-color="#343535"/><stop offset="0.48" stop-color="#222323"/><stop offset="1" stop-color="#111214"/></linearGradient>
  <linearGradient id="rackEdge" x1="0" y1="0" x2="0" y2="1"><stop offset="0" stop-color="#777"/><stop offset="0.18" stop-color="#272727"/><stop offset="1" stop-color="#060606"/></linearGradient>
  <linearGradient id="metal" x1="0" y1="0" x2="1" y2="1"><stop offset="0" stop-color="#e0ddd0"/><stop offset="0.22" stop-color="#71706a"/><stop offset="0.52" stop-color="#202122"/><stop offset="0.83" stop-color="#0b0c0d"/><stop offset="1" stop-color="#7e7a70"/></linearGradient>
  <linearGradient id="blueMetal" x1="0" y1="0" x2="1" y2="1"><stop offset="0" stop-color="#5aa2ff"/><stop offset="0.4" stop-color="#1763c7"/><stop offset="1" stop-color="#07306d"/></linearGradient>
  <linearGradient id="jackCup" x1="0" y1="0" x2="0" y2="1"><stop offset="0" stop-color="#1e2021"/><stop offset="0.45" stop-color="#060708"/><stop offset="1" stop-color="#000"/></linearGradient>
  <filter id="shadow" x="-25%" y="-25%" width="150%" height="150%"><feDropShadow dx="0" dy="3" stdDeviation="3" flood-color="#000" flood-opacity="0.65"/></filter>
</defs>

<rect x="4" y="6" width="1112" height="248" rx="8" fill="url(#rackEdge)" filter="url(#shadow)"/>
<rect x="18" y="14" width="1084" height="232" rx="5" fill="url(#rackFace)" stroke="#5e5e58" stroke-width="1.2"/>
<path d="M22 18H1098" stroke="#7d7a70" stroke-opacity="0.5"/>
<path d="M22 242H1098" stroke="#000" stroke-opacity="0.8"/>
<rect x="3" y="18" width="12" height="224" rx="5" fill="#111" stroke="#4e4e4a"/>
<rect x="6" y="28" width="6" height="204" rx="3" fill="url(#metal)" opacity="0.78"/>
<circle cx="9" cy="20" r="4.2" fill="#060606" stroke="#8c8a82" stroke-width="1"/>
<circle cx="9" cy="240" r="4.2" fill="#060606" stroke="#8c8a82" stroke-width="1"/>
<rect x="1105" y="18" width="12" height="224" rx="5" fill="#111" stroke="#4e4e4a"/>
<rect x="1108" y="28" width="6" height="204" rx="3" fill="url(#metal)" opacity="0.78"/>
<circle cx="1111" cy="20" r="4.2" fill="#060606" stroke="#8c8a82" stroke-width="1"/>
<circle cx="1111" cy="240" r="4.2" fill="#060606" stroke="#8c8a82" stroke-width="1"/>

<text x="190" y="48" text-anchor="middle" font-family="'Arial Narrow','Roboto Condensed','Helvetica Neue',Arial,sans-serif" font-size="13" font-weight="800" fill="#e8e5da">MIC / LINE INPUTS</text>
<text x="520" y="48" text-anchor="middle" font-family="'Arial Narrow','Roboto Condensed','Helvetica Neue',Arial,sans-serif" font-size="13" font-weight="800" fill="#e8e5da">AUX OUTS</text>
<text x="790" y="48" text-anchor="middle" font-family="'Arial Narrow','Roboto Condensed','Helvetica Neue',Arial,sans-serif" font-size="13" font-weight="800" fill="#e8e5da">BUS OUTS</text>
<text x="1005" y="48" text-anchor="middle" font-family="'Arial Narrow','Roboto Condensed','Helvetica Neue',Arial,sans-serif" font-size="13" font-weight="800" fill="#e8e5da">MAIN OUTPUTS</text>

<path d="M355 56V214" stroke="#9b9b92" stroke-width="1.2" opacity="0.7"/>
<path d="M650 56V214" stroke="#9b9b92" stroke-width="1.2" opacity="0.7"/>
<path d="M930 56V214" stroke="#9b9b92" stroke-width="1.2" opacity="0.7"/>

<!-- Mic / line inputs, game-style XLR-like jack faces -->
<g font-family="'Arial Narrow','Roboto Condensed','Helvetica Neue',Arial,sans-serif" font-size="14" font-weight="700" text-anchor="middle" fill="#e8e5da">
  <text x="100" y="82">1</text><text x="160" y="82">2</text><text x="220" y="82">3</text><text x="280" y="82">4</text>
  <text x="100" y="162">5</text><text x="160" y="162">6</text><text x="220" y="162">7</text><text x="280" y="162">8</text>
</g>

<g class="xlr-bank" filter="url(#shadow)">
  <g transform="translate(100 124) scale(0.86) translate(-100 -124)">
    <circle cx="100" cy="124" r="23" fill="url(#metal)" stroke="#050505" stroke-width="1.2"/><circle cx="100" cy="124" r="19.78" fill="#121314" stroke="#817d72" stroke-width=".8"/><circle cx="100" cy="124" r="16.1" fill="url(#jackCup)" stroke="#68645b" stroke-width=".9"/><circle cx="94.3" cy="120.7" r="2.7" fill="#050505" stroke="#5d5a52" stroke-width=".7"/><circle cx="105.7" cy="120.7" r="2.7" fill="#050505" stroke="#5d5a52" stroke-width=".7"/><circle cx="100" cy="131.5" r="2.7" fill="#050505" stroke="#5d5a52" stroke-width=".7"/>
  </g>
  <g transform="translate(160 124) scale(0.86) translate(-160 -124)">
    <circle cx="160" cy="124" r="23" fill="url(#metal)" stroke="#050505" stroke-width="1.2"/><circle cx="160" cy="124" r="19.78" fill="#121314" stroke="#817d72" stroke-width=".8"/><circle cx="160" cy="124" r="16.1" fill="url(#jackCup)" stroke="#68645b" stroke-width=".9"/><circle cx="154.3" cy="120.7" r="2.7" fill="#050505" stroke="#5d5a52" stroke-width=".7"/><circle cx="165.7" cy="120.7" r="2.7" fill="#050505" stroke="#5d5a52" stroke-width=".7"/><circle cx="160" cy="131.5" r="2.7" fill="#050505" stroke="#5d5a52" stroke-width=".7"/>
  </g>
  <g transform="translate(220 124) scale(0.86) translate(-220 -124)">
    <circle cx="220" cy="124" r="23" fill="url(#metal)" stroke="#050505" stroke-width="1.2"/><circle cx="220" cy="124" r="19.78" fill="#121314" stroke="#817d72" stroke-width=".8"/><circle cx="220" cy="124" r="16.1" fill="url(#jackCup)" stroke="#68645b" stroke-width=".9"/><circle cx="214.3" cy="120.7" r="2.7" fill="#050505" stroke="#5d5a52" stroke-width=".7"/><circle cx="225.7" cy="120.7" r="2.7" fill="#050505" stroke="#5d5a52" stroke-width=".7"/><circle cx="220" cy="131.5" r="2.7" fill="#050505" stroke="#5d5a52" stroke-width=".7"/>
  </g>
  <g transform="translate(280 124) scale(0.86) translate(-280 -124)">
    <circle cx="280" cy="124" r="23" fill="url(#metal)" stroke="#050505" stroke-width="1.2"/><circle cx="280" cy="124" r="19.78" fill="#121314" stroke="#817d72" stroke-width=".8"/><circle cx="280" cy="124" r="16.1" fill="url(#jackCup)" stroke="#68645b" stroke-width=".9"/><circle cx="274.3" cy="120.7" r="2.7" fill="#050505" stroke="#5d5a52" stroke-width=".7"/><circle cx="285.7" cy="120.7" r="2.7" fill="#050505" stroke="#5d5a52" stroke-width=".7"/><circle cx="280" cy="131.5" r="2.7" fill="#050505" stroke="#5d5a52" stroke-width=".7"/>
  </g>
</g>

<g class="trs-inputs" filter="url(#shadow)">
  <circle cx="100" cy="190" r="17" fill="url(#metal)" stroke="#050505" stroke-width="1.3"/><circle cx="100" cy="190" r="11.56" fill="#090909" stroke="#c9c3b3" stroke-width="1.3"/><circle cx="100" cy="190" r="5.78" fill="#1d1d1c" stroke="#050505"/>
  <circle cx="160" cy="190" r="17" fill="url(#metal)" stroke="#050505" stroke-width="1.3"/><circle cx="160" cy="190" r="11.56" fill="#090909" stroke="#c9c3b3" stroke-width="1.3"/><circle cx="160" cy="190" r="5.78" fill="#1d1d1c" stroke="#050505"/>
  <circle cx="220" cy="190" r="17" fill="url(#metal)" stroke="#050505" stroke-width="1.3"/><circle cx="220" cy="190" r="11.56" fill="#090909" stroke="#c9c3b3" stroke-width="1.3"/><circle cx="220" cy="190" r="5.78" fill="#1d1d1c" stroke="#050505"/>
  <circle cx="280" cy="190" r="17" fill="url(#metal)" stroke="#050505" stroke-width="1.3"/><circle cx="280" cy="190" r="11.56" fill="#090909" stroke="#c9c3b3" stroke-width="1.3"/><circle cx="280" cy="190" r="5.78" fill="#1d1d1c" stroke="#050505"/>
</g>

<!-- Aux outs: neutral L/R rows, no answer baked in -->
<rect x="388" y="70" width="252" height="132" rx="6" fill="#111314" stroke="#444b4d" opacity=".92"/>
<g font-family="'Arial Narrow','Roboto Condensed','Helvetica Neue',Arial,sans-serif" text-anchor="middle" font-size="12" font-weight="800" fill="#e8e5da">
  <text x="418" y="96">1</text><text x="458" y="96">2</text><text x="498" y="96">3</text><text x="538" y="96">4</text><text x="578" y="96">5</text><text x="618" y="96">6</text>
  <text x="370" y="128">L</text><text x="370" y="176">R</text>
</g>
<g class="aux-outs" filter="url(#shadow)">
  <circle cx="418" cy="126" r="15" fill="url(#metal)" stroke="#050505" stroke-width="1.2"/><circle cx="418" cy="126" r="10.2" fill="#090909" stroke="#c9c3b3" stroke-width="1.2"/><circle cx="418" cy="126" r="5.1" fill="#1d1d1c" stroke="#050505"/>
  <circle cx="458" cy="126" r="15" fill="url(#metal)" stroke="#050505" stroke-width="1.2"/><circle cx="458" cy="126" r="10.2" fill="#090909" stroke="#c9c3b3" stroke-width="1.2"/><circle cx="458" cy="126" r="5.1" fill="#1d1d1c" stroke="#050505"/>
  <circle cx="498" cy="126" r="15" fill="url(#metal)" stroke="#050505" stroke-width="1.2"/><circle cx="498" cy="126" r="10.2" fill="#090909" stroke="#c9c3b3" stroke-width="1.2"/><circle cx="498" cy="126" r="5.1" fill="#1d1d1c" stroke="#050505"/>
  <circle cx="538" cy="126" r="15" fill="url(#metal)" stroke="#050505" stroke-width="1.2"/><circle cx="538" cy="126" r="10.2" fill="#090909" stroke="#c9c3b3" stroke-width="1.2"/><circle cx="538" cy="126" r="5.1" fill="#1d1d1c" stroke="#050505"/>
  <circle cx="578" cy="126" r="15" fill="url(#metal)" stroke="#050505" stroke-width="1.2"/><circle cx="578" cy="126" r="10.2" fill="#090909" stroke="#c9c3b3" stroke-width="1.2"/><circle cx="578" cy="126" r="5.1" fill="#1d1d1c" stroke="#050505"/>
  <circle cx="618" cy="126" r="15" fill="url(#metal)" stroke="#050505" stroke-width="1.2"/><circle cx="618" cy="126" r="10.2" fill="#090909" stroke="#c9c3b3" stroke-width="1.2"/><circle cx="618" cy="126" r="5.1" fill="#1d1d1c" stroke="#050505"/>
  <circle cx="418" cy="172" r="15" fill="url(#metal)" stroke="#050505" stroke-width="1.2"/><circle cx="418" cy="172" r="10.2" fill="#090909" stroke="#c9c3b3" stroke-width="1.2"/><circle cx="418" cy="172" r="5.1" fill="#1d1d1c" stroke="#050505"/>
  <circle cx="458" cy="172" r="15" fill="url(#metal)" stroke="#050505" stroke-width="1.2"/><circle cx="458" cy="172" r="10.2" fill="#090909" stroke="#c9c3b3" stroke-width="1.2"/><circle cx="458" cy="172" r="5.1" fill="#1d1d1c" stroke="#050505"/>
  <circle cx="498" cy="172" r="15" fill="url(#metal)" stroke="#050505" stroke-width="1.2"/><circle cx="498" cy="172" r="10.2" fill="#090909" stroke="#c9c3b3" stroke-width="1.2"/><circle cx="498" cy="172" r="5.1" fill="#1d1d1c" stroke="#050505"/>
  <circle cx="538" cy="172" r="15" fill="url(#metal)" stroke="#050505" stroke-width="1.2"/><circle cx="538" cy="172" r="10.2" fill="#090909" stroke="#c9c3b3" stroke-width="1.2"/><circle cx="538" cy="172" r="5.1" fill="#1d1d1c" stroke="#050505"/>
  <circle cx="578" cy="172" r="15" fill="url(#metal)" stroke="#050505" stroke-width="1.2"/><circle cx="578" cy="172" r="10.2" fill="#090909" stroke="#c9c3b3" stroke-width="1.2"/><circle cx="578" cy="172" r="5.1" fill="#1d1d1c" stroke="#050505"/>
  <circle cx="618" cy="172" r="15" fill="url(#metal)" stroke="#050505" stroke-width="1.2"/><circle cx="618" cy="172" r="10.2" fill="#090909" stroke="#c9c3b3" stroke-width="1.2"/><circle cx="618" cy="172" r="5.1" fill="#1d1d1c" stroke="#050505"/>
</g>

<!-- Bus outs -->
<g font-family="'Arial Narrow','Roboto Condensed','Helvetica Neue',Arial,sans-serif" text-anchor="middle" font-size="14" font-weight="700" fill="#e8e5da">
  <text x="710" y="91">1</text><text x="756" y="91">2</text><text x="802" y="91">3</text><text x="848" y="91">4</text>
  <text x="710" y="163">5</text><text x="756" y="163">6</text><text x="802" y="163">7</text><text x="848" y="163">8</text>
</g>
<g class="bus-outs" filter="url(#shadow)">
  <circle cx="710" cy="126" r="17" fill="url(#metal)" stroke="#050505" stroke-width="1.3"/><circle cx="710" cy="126" r="11.56" fill="#090909" stroke="#c9c3b3" stroke-width="1.3"/><circle cx="710" cy="126" r="5.78" fill="#1d1d1c" stroke="#050505"/>
  <circle cx="756" cy="126" r="17" fill="url(#metal)" stroke="#050505" stroke-width="1.3"/><circle cx="756" cy="126" r="11.56" fill="#090909" stroke="#c9c3b3" stroke-width="1.3"/><circle cx="756" cy="126" r="5.78" fill="#1d1d1c" stroke="#050505"/>
  <circle cx="802" cy="126" r="17" fill="url(#metal)" stroke="#050505" stroke-width="1.3"/><circle cx="802" cy="126" r="11.56" fill="#090909" stroke="#c9c3b3" stroke-width="1.3"/><circle cx="802" cy="126" r="5.78" fill="#1d1d1c" stroke="#050505"/>
  <circle cx="848" cy="126" r="17" fill="url(#metal)" stroke="#050505" stroke-width="1.3"/><circle cx="848" cy="126" r="11.56" fill="#090909" stroke="#c9c3b3" stroke-width="1.3"/><circle cx="848" cy="126" r="5.78" fill="#1d1d1c" stroke="#050505"/>
  <circle cx="710" cy="190" r="17" fill="url(#metal)" stroke="#050505" stroke-width="1.3"/><circle cx="710" cy="190" r="11.56" fill="#090909" stroke="#c9c3b3" stroke-width="1.3"/><circle cx="710" cy="190" r="5.78" fill="#1d1d1c" stroke="#050505"/>
  <circle cx="756" cy="190" r="17" fill="url(#metal)" stroke="#050505" stroke-width="1.3"/><circle cx="756" cy="190" r="11.56" fill="#090909" stroke="#c9c3b3" stroke-width="1.3"/><circle cx="756" cy="190" r="5.78" fill="#1d1d1c" stroke="#050505"/>
  <circle cx="802" cy="190" r="17" fill="url(#metal)" stroke="#050505" stroke-width="1.3"/><circle cx="802" cy="190" r="11.56" fill="#090909" stroke="#c9c3b3" stroke-width="1.3"/><circle cx="802" cy="190" r="5.78" fill="#1d1d1c" stroke="#050505"/>
  <circle cx="848" cy="190" r="17" fill="url(#metal)" stroke="#050505" stroke-width="1.3"/><circle cx="848" cy="190" r="11.56" fill="#090909" stroke="#c9c3b3" stroke-width="1.3"/><circle cx="848" cy="190" r="5.78" fill="#1d1d1c" stroke="#050505"/>
</g>

<!-- Main outputs -->
<text x="975" y="82" text-anchor="middle" font-family="'Arial Narrow','Roboto Condensed','Helvetica Neue',Arial,sans-serif" font-size="12" font-weight="800" fill="#e8e5da">LEFT</text>
<text x="1045" y="82" text-anchor="middle" font-family="'Arial Narrow','Roboto Condensed','Helvetica Neue',Arial,sans-serif" font-size="12" font-weight="800" fill="#e8e5da">RIGHT</text>
<g class="speakon" filter="url(#shadow)">
  <rect x="947" y="106" width="56" height="56" rx="7" fill="url(#blueMetal)" stroke="#051128" stroke-width="1.5"/><circle cx="975" cy="134" r="19.04" fill="#071025" stroke="#2e81ff" stroke-width="2"/><rect x="971.08" y="121.68" width="7.84" height="12.32" rx="2" fill="#2e81ff" opacity=".65"/>
  <rect x="1017" y="106" width="56" height="56" rx="7" fill="url(#blueMetal)" stroke="#051128" stroke-width="1.5"/><circle cx="1045" cy="134" r="19.04" fill="#071025" stroke="#2e81ff" stroke-width="2"/><rect x="1041.08" y="121.68" width="7.84" height="12.32" rx="2" fill="#2e81ff" opacity=".65"/>
</g>
<text x="975" y="194" text-anchor="middle" font-family="'Arial Narrow','Roboto Condensed','Helvetica Neue',Arial,sans-serif" font-size="11" font-weight="700" fill="#e8e5da">MAIN L</text>
<text x="1045" y="194" text-anchor="middle" font-family="'Arial Narrow','Roboto Condensed','Helvetica Neue',Arial,sans-serif" font-size="11" font-weight="700" fill="#e8e5da">MAIN R</text>
</svg>
