<svg xmlns="http://www.w3.org/2000/svg" width="1120" height="260" viewBox="0 0 1120 260" role="img" aria-label="LIV-006 FOH console matrix and main outputs">
<defs>
  <linearGradient id="rackFace" x1="0" y1="0" x2="0" y2="1"><stop offset="0" stop-color="#343535"/><stop offset="0.48" stop-color="#222323"/><stop offset="1" stop-color="#111214"/></linearGradient>
  <linearGradient id="rackEdge" x1="0" y1="0" x2="0" y2="1"><stop offset="0" stop-color="#777"/><stop offset="0.18" stop-color="#272727"/><stop offset="1" stop-color="#060606"/></linearGradient>
  <linearGradient id="metal" x1="0" y1="0" x2="1" y2="1"><stop offset="0" stop-color="#e0ddd0"/><stop offset="0.22" stop-color="#71706a"/><stop offset="0.52" stop-color="#202122"/><stop offset="0.83" stop-color="#0b0c0d"/><stop offset="1" stop-color="#7e7a70"/></linearGradient>
  <linearGradient id="blueMetal" x1="0" y1="0" x2="1" y2="1"><stop offset="0" stop-color="#5aa2ff"/><stop offset="0.4" stop-color="#1763c7"/><stop offset="1" stop-color="#07306d"/></linearGradient>
  <linearGradient id="jackCup" x1="0" y1="0" x2="0" y2="1"><stop offset="0" stop-color="#1e2021"/><stop offset="0.45" stop-color="#060708"/><stop offset="1" stop-color="#000"/></linearGradient>
  <filter id="shadow" x="-25%" y="-25%" width="150%" height="150%"><feDropShadow dx="0" dy="3" stdDeviation="3" flood-color="#000" flood-opacity="0.65"/></filter>
</defs>

<rect x="4" y="6" width="1112" height="248" rx="8" fill="url(#rackEdge)" filter="url(#shadow)"/>
<rect x="18" y="14" width="1084" height="232" rx="5" fill="url(#rackFace)" stroke="#5e5e58" stroke-width="1.2"/>
<path d="M22 18H1098" stroke="#7d7a70" stroke-opacity="0.5"/>
<path d="M22 242H1098" stroke="#000" stroke-opacity="0.8"/>
<rect x="3" y="18" width="12" height="224" rx="5" fill="#111" stroke="#4e4e4a"/>
<rect x="6" y="28" width="6" height="204" rx="3" fill="url(#metal)" opacity="0.78"/>
<circle cx="9" cy="20" r="4.2" fill="#060606" stroke="#8c8a82" stroke-width="1"/>
<circle cx="9" cy="240" r="4.2" fill="#060606" stroke="#8c8a82" stroke-width="1"/>
<rect x="1105" y="18" width="12" height="224" rx="5" fill="#111" stroke="#4e4e4a"/>
<rect x="1108" y="28" width="6" height="204" rx="3" fill="url(#metal)" opacity="0.78"/>
<circle cx="1111" cy="20" r="4.2" fill="#060606" stroke="#8c8a82" stroke-width="1"/>
<circle cx="1111" cy="240" r="4.2" fill="#060606" stroke="#8c8a82" stroke-width="1"/>

<text x="205" y="48" text-anchor="middle" font-family="'Arial Narrow','Roboto Condensed','Helvetica Neue',Arial,sans-serif" font-size="13" font-weight="800" fill="#e8e5da">MATRIX OUTPUTS</text>
<text x="532" y="48" text-anchor="middle" font-family="'Arial Narrow','Roboto Condensed','Helvetica Neue',Arial,sans-serif" font-size="13" font-weight="800" fill="#e8e5da">AUX OUTS</text>
<text x="790" y="48" text-anchor="middle" font-family="'Arial Narrow','Roboto Condensed','Helvetica Neue',Arial,sans-serif" font-size="13" font-weight="800" fill="#e8e5da">BUS OUTS</text>
<text x="1005" y="48" text-anchor="middle" font-family="'Arial Narrow','Roboto Condensed','Helvetica Neue',Arial,sans-serif" font-size="13" font-weight="800" fill="#e8e5da">MAIN OUTPUTS</text>

<path d="M355 56V214" stroke="#9b9b92" stroke-width="1.2" opacity="0.7"/>
<path d="M650 56V214" stroke="#9b9b92" stroke-width="1.2" opacity="0.7"/>
<path d="M930 56V214" stroke="#9b9b92" stroke-width="1.2" opacity="0.7"/>

<g font-family="'Arial Narrow','Roboto Condensed','Helvetica Neue',Arial,sans-serif" text-anchor="middle" font-size="14" font-weight="700" fill="#e8e5da">
  <text x="105" y="91">1</text><text x="180" y="91">2</text><text x="255" y="91">3</text><text x="330" y="91">4</text>
</g>
<g class="matrix-outs" filter="url(#shadow)">
  <circle cx="105" cy="134" r="21" fill="url(#metal)" stroke="#050505" stroke-width="1.3"/><circle cx="105" cy="134" r="14.28" fill="#090909" stroke="#c9c3b3" stroke-width="1.3"/><circle cx="105" cy="134" r="7.14" fill="#1d1d1c" stroke="#050505"/>
  <circle cx="180" cy="134" r="21" fill="url(#metal)" stroke="#050505" stroke-width="1.3"/><circle cx="180" cy="134" r="14.28" fill="#090909" stroke="#c9c3b3" stroke-width="1.3"/><circle cx="180" cy="134" r="7.14" fill="#1d1d1c" stroke="#050505"/>
  <circle cx="255" cy="134" r="21" fill="url(#metal)" stroke="#050505" stroke-width="1.3"/><circle cx="255" cy="134" r="14.28" fill="#090909" stroke="#c9c3b3" stroke-width="1.3"/><circle cx="255" cy="134" r="7.14" fill="#1d1d1c" stroke="#050505"/>
  <circle cx="330" cy="134" r="21" fill="url(#metal)" stroke="#050505" stroke-width="1.3"/><circle cx="330" cy="134" r="14.28" fill="#090909" stroke="#c9c3b3" stroke-width="1.3"/><circle cx="330" cy="134" r="7.14" fill="#1d1d1c" stroke="#050505"/>
</g>
<text x="217" y="190" text-anchor="middle" font-family="'Arial Narrow','Roboto Condensed','Helvetica Neue',Arial,sans-serif" font-size="11" font-weight="700" fill="#e8e5da">MONO MATRIX FEEDS</text>

<rect x="388" y="74" width="252" height="118" rx="6" fill="#111314" stroke="#444b4d" opacity=".92"/>
<g font-family="'Arial Narrow','Roboto Condensed','Helvetica Neue',Arial,sans-serif" text-anchor="middle" font-size="12" font-weight="800" fill="#e8e5da">
  <text x="418" y="101">1</text><text x="458" y="101">2</text><text x="498" y="101">3</text><text x="538" y="101">4</text><text x="578" y="101">5</text><text x="618" y="101">6</text>
</g>
<g class="aux-outs" filter="url(#shadow)">
  <circle cx="418" cy="140" r="15" fill="url(#metal)" stroke="#050505" stroke-width="1.2"/><circle cx="418" cy="140" r="10.2" fill="#090909" stroke="#c9c3b3" stroke-width="1.2"/><circle cx="418" cy="140" r="5.1" fill="#1d1d1c" stroke="#050505"/>
  <circle cx="458" cy="140" r="15" fill="url(#metal)" stroke="#050505" stroke-width="1.2"/><circle cx="458" cy="140" r="10.2" fill="#090909" stroke="#c9c3b3" stroke-width="1.2"/><circle cx="458" cy="140" r="5.1" fill="#1d1d1c" stroke="#050505"/>
  <circle cx="498" cy="140" r="15" fill="url(#metal)" stroke="#050505" stroke-width="1.2"/><circle cx="498" cy="140" r="10.2" fill="#090909" stroke="#c9c3b3" stroke-width="1.2"/><circle cx="498" cy="140" r="5.1" fill="#1d1d1c" stroke="#050505"/>
  <circle cx="538" cy="140" r="15" fill="url(#metal)" stroke="#050505" stroke-width="1.2"/><circle cx="538" cy="140" r="10.2" fill="#090909" stroke="#c9c3b3" stroke-width="1.2"/><circle cx="538" cy="140" r="5.1" fill="#1d1d1c" stroke="#050505"/>
  <circle cx="578" cy="140" r="15" fill="url(#metal)" stroke="#050505" stroke-width="1.2"/><circle cx="578" cy="140" r="10.2" fill="#090909" stroke="#c9c3b3" stroke-width="1.2"/><circle cx="578" cy="140" r="5.1" fill="#1d1d1c" stroke="#050505"/>
  <circle cx="618" cy="140" r="15" fill="url(#metal)" stroke="#050505" stroke-width="1.2"/><circle cx="618" cy="140" r="10.2" fill="#090909" stroke="#c9c3b3" stroke-width="1.2"/><circle cx="618" cy="140" r="5.1" fill="#1d1d1c" stroke="#050505"/>
</g>

<g font-family="'Arial Narrow','Roboto Condensed','Helvetica Neue',Arial,sans-serif" text-anchor="middle" font-size="14" font-weight="700" fill="#e8e5da">
  <text x="710" y="91">1</text><text x="756" y="91">2</text><text x="802" y="91">3</text><text x="848" y="91">4</text>
  <text x="710" y="163">5</text><text x="756" y="163">6</text><text x="802" y="163">7</text><text x="848" y="163">8</text>
</g>
<g class="bus-outs" filter="url(#shadow)">
  <circle cx="710" cy="126" r="17" fill="url(#metal)" stroke="#050505" stroke-width="1.3"/><circle cx="710" cy="126" r="11.56" fill="#090909" stroke="#c9c3b3" stroke-width="1.3"/><circle cx="710" cy="126" r="5.78" fill="#1d1d1c" stroke="#050505"/>
  <circle cx="756" cy="126" r="17" fill="url(#metal)" stroke="#050505" stroke-width="1.3"/><circle cx="756" cy="126" r="11.56" fill="#090909" stroke="#c9c3b3" stroke-width="1.3"/><circle cx="756" cy="126" r="5.78" fill="#1d1d1c" stroke="#050505"/>
  <circle cx="802" cy="126" r="17" fill="url(#metal)" stroke="#050505" stroke-width="1.3"/><circle cx="802" cy="126" r="11.56" fill="#090909" stroke="#c9c3b3" stroke-width="1.3"/><circle cx="802" cy="126" r="5.78" fill="#1d1d1c" stroke="#050505"/>
  <circle cx="848" cy="126" r="17" fill="url(#metal)" stroke="#050505" stroke-width="1.3"/><circle cx="848" cy="126" r="11.56" fill="#090909" stroke="#c9c3b3" stroke-width="1.3"/><circle cx="848" cy="126" r="5.78" fill="#1d1d1c" stroke="#050505"/>
  <circle cx="710" cy="190" r="17" fill="url(#metal)" stroke="#050505" stroke-width="1.3"/><circle cx="710" cy="190" r="11.56" fill="#090909" stroke="#c9c3b3" stroke-width="1.3"/><circle cx="710" cy="190" r="5.78" fill="#1d1d1c" stroke="#050505"/>
  <circle cx="756" cy="190" r="17" fill="url(#metal)" stroke="#050505" stroke-width="1.3"/><circle cx="756" cy="190" r="11.56" fill="#090909" stroke="#c9c3b3" stroke-width="1.3"/><circle cx="756" cy="190" r="5.78" fill="#1d1d1c" stroke="#050505"/>
  <circle cx="802" cy="190" r="17" fill="url(#metal)" stroke="#050505" stroke-width="1.3"/><circle cx="802" cy="190" r="11.56" fill="#090909" stroke="#c9c3b3" stroke-width="1.3"/><circle cx="802" cy="190" r="5.78" fill="#1d1d1c" stroke="#050505"/>
  <circle cx="848" cy="190" r="17" fill="url(#metal)" stroke="#050505" stroke-width="1.3"/><circle cx="848" cy="190" r="11.56" fill="#090909" stroke="#c9c3b3" stroke-width="1.3"/><circle cx="848" cy="190" r="5.78" fill="#1d1d1c" stroke="#050505"/>
</g>

<text x="975" y="82" text-anchor="middle" font-family="'Arial Narrow','Roboto Condensed','Helvetica Neue',Arial,sans-serif" font-size="12" font-weight="800" fill="#e8e5da">LEFT</text>
<text x="1045" y="82" text-anchor="middle" font-family="'Arial Narrow','Roboto Condensed','Helvetica Neue',Arial,sans-serif" font-size="12" font-weight="800" fill="#e8e5da">RIGHT</text>
<g class="speakon" filter="url(#shadow)">
  <rect x="947" y="106" width="56" height="56" rx="7" fill="url(#blueMetal)" stroke="#051128" stroke-width="1.5"/><circle cx="975" cy="134" r="19.04" fill="#071025" stroke="#2e81ff" stroke-width="2"/><rect x="971.08" y="121.68" width="7.84" height="12.32" rx="2" fill="#2e81ff" opacity=".65"/>
  <rect x="1017" y="106" width="56" height="56" rx="7" fill="url(#blueMetal)" stroke="#051128" stroke-width="1.5"/><circle cx="1045" cy="134" r="19.04" fill="#071025" stroke="#2e81ff" stroke-width="2"/><rect x="1041.08" y="121.68" width="7.84" height="12.32" rx="2" fill="#2e81ff" opacity=".65"/>
</g>
<text x="975" y="194" text-anchor="middle" font-family="'Arial Narrow','Roboto Condensed','Helvetica Neue',Arial,sans-serif" font-size="11" font-weight="700" fill="#e8e5da">MAIN L</text>
<text x="1045" y="194" text-anchor="middle" font-family="'Arial Narrow','Roboto Condensed','Helvetica Neue',Arial,sans-serif" font-size="11" font-weight="700" fill="#e8e5da">MAIN R</text>
</svg>
