<svg xmlns="http://www.w3.org/2000/svg" width="900" height="240" viewBox="0 0 900 240" role="img" aria-label="IEM wireless rack scale preserved">
<defs>
  <linearGradient id="rackFace" x1="0" y1="0" x2="0" y2="1"><stop offset="0" stop-color="#343535"/><stop offset="0.48" stop-color="#222323"/><stop offset="1" stop-color="#111214"/></linearGradient>
  <linearGradient id="rackEdge" x1="0" y1="0" x2="0" y2="1"><stop offset="0" stop-color="#777"/><stop offset="0.18" stop-color="#272727"/><stop offset="1" stop-color="#060606"/></linearGradient>
  <linearGradient id="metal" x1="0" y1="0" x2="1" y2="1"><stop offset="0" stop-color="#e0ddd0"/><stop offset="0.22" stop-color="#71706a"/><stop offset="0.52" stop-color="#202122"/><stop offset="0.83" stop-color="#0b0c0d"/><stop offset="1" stop-color="#7e7a70"/></linearGradient>
  <linearGradient id="blueMetal" x1="0" y1="0" x2="1" y2="1"><stop offset="0" stop-color="#5aa2ff"/><stop offset="0.4" stop-color="#1763c7"/><stop offset="1" stop-color="#07306d"/></linearGradient>
  <linearGradient id="goldPin" x1="0" y1="0" x2="1" y2="1"><stop offset="0" stop-color="#ffe7a6"/><stop offset="0.45" stop-color="#c88c2a"/><stop offset="1" stop-color="#5f3b0d"/></linearGradient>
  <linearGradient id="jackCup" x1="0" y1="0" x2="0" y2="1"><stop offset="0" stop-color="#1e2021"/><stop offset="0.45" stop-color="#060708"/><stop offset="1" stop-color="#000"/></linearGradient>
  <linearGradient id="amberLens" x1="0" y1="0" x2="1" y2="1"><stop offset="0" stop-color="#ffe5a6"/><stop offset="0.38" stop-color="#d99619"/><stop offset="0.72" stop-color="#5d3200"/><stop offset="1" stop-color="#ffbd2d"/></linearGradient>
  <filter id="shadow" x="-25%" y="-25%" width="150%" height="150%"><feDropShadow dx="0" dy="3" stdDeviation="3" flood-color="#000" flood-opacity="0.65"/></filter>
  <filter id="softGlow" x="-70%" y="-70%" width="240%" height="240%"><feGaussianBlur stdDeviation="3" result="b"/><feMerge><feMergeNode in="b"/><feMergeNode in="SourceGraphic"/></feMerge></filter>
</defs>
<rect x="4" y="6" width="892" height="228" rx="8" fill="url(#rackEdge)" filter="url(#shadow)"/>
<rect x="18" y="14" width="864" height="212" rx="5" fill="url(#rackFace)" stroke="#5e5e58" stroke-width="1.2"/>
<path d="M22 18H878" stroke="#7d7a70" stroke-opacity="0.5"/>
<path d="M22 222H878" stroke="#000" stroke-opacity="0.8"/>
<rect x="3" y="18" width="12" height="204" rx="5" fill="#111" stroke="#4e4e4a"/>
<rect x="6" y="28" width="6" height="184" rx="3" fill="url(#metal)" opacity="0.78"/>
<circle cx="9" cy="20" r="4.2" fill="#060606" stroke="#8c8a82" stroke-width="1"/>
<circle cx="9" cy="220" r="4.2" fill="#060606" stroke="#8c8a82" stroke-width="1"/>
<rect x="885" y="18" width="12" height="204" rx="5" fill="#111" stroke="#4e4e4a"/>
<rect x="888" y="28" width="6" height="184" rx="3" fill="url(#metal)" opacity="0.78"/>
<circle cx="891" cy="20" r="4.2" fill="#060606" stroke="#8c8a82" stroke-width="1"/>
<circle cx="891" cy="220" r="4.2" fill="#060606" stroke="#8c8a82" stroke-width="1"/>
<text x="20" y="-6" text-anchor="start" font-family="'Arial Narrow','Roboto Condensed','Helvetica Neue',Arial,sans-serif" font-size="16" font-weight="800" fill="#e7e7de" >5. IEM / WIRELESS RACK FRONT</text>
<path d="M145 55V190" stroke="#9b9b92" stroke-width="1.2" opacity="0.7"/>
<path d="M360 55V190" stroke="#9b9b92" stroke-width="1.2" opacity="0.7"/>
<path d="M575 55V190" stroke="#9b9b92" stroke-width="1.2" opacity="0.7"/>
<path d="M735 55V190" stroke="#9b9b92" stroke-width="1.2" opacity="0.7"/>
<text x="80" y="55" text-anchor="middle" font-family="'Arial Narrow','Roboto Condensed','Helvetica Neue',Arial,sans-serif" font-size="13" font-weight="800" fill="#e8e5da" >ANTENNA A</text>
<text x="245" y="55" text-anchor="middle" font-family="'Arial Narrow','Roboto Condensed','Helvetica Neue',Arial,sans-serif" font-size="13" font-weight="800" fill="#e8e5da" >RECEIVER 1</text>
<text x="465" y="55" text-anchor="middle" font-family="'Arial Narrow','Roboto Condensed','Helvetica Neue',Arial,sans-serif" font-size="13" font-weight="800" fill="#e8e5da" >RECEIVER 2</text>
<text x="655" y="55" text-anchor="middle" font-family="'Arial Narrow','Roboto Condensed','Helvetica Neue',Arial,sans-serif" font-size="13" font-weight="800" fill="#e8e5da" >PHONES</text>
<text x="815" y="55" text-anchor="middle" font-family="'Arial Narrow','Roboto Condensed','Helvetica Neue',Arial,sans-serif" font-size="13" font-weight="800" fill="#e8e5da" >ANTENNA B</text>
<g data-scale="antenna-small" filter="url(#shadow)">
<circle cx="80" cy="125" r="19.0" fill="url(#metal)" stroke="#050505"/>
<circle cx="80" cy="125" r="10.450000000000001" fill="#151515" stroke="#bfb8a8"/>
<circle cx="80" cy="125" r="3.8000000000000003" fill="#050505"/>
</g>
<g data-scale="antenna-small" filter="url(#shadow)">
<circle cx="815" cy="125" r="19.0" fill="url(#metal)" stroke="#050505"/>
<circle cx="815" cy="125" r="10.450000000000001" fill="#151515" stroke="#bfb8a8"/>
<circle cx="815" cy="125" r="3.8000000000000003" fill="#050505"/>
</g>
<g filter="url(#shadow)">
  <rect x="157" y="84" width="176" height="82" rx="6" fill="#0b0d0e" stroke="#555"/>
  <rect x="169" y="95" width="96" height="44" rx="4" fill="#171308" stroke="#3e3220"/>
  <text x="187" y="112" text-anchor="start" font-family="'Roboto Mono','SFMono-Regular',Consolas,monospace" font-size="13" font-weight="700" fill="#ffae00" >G:01</text>
  <text x="241" y="112" text-anchor="start" font-family="'Roboto Mono','SFMono-Regular',Consolas,monospace" font-size="13" font-weight="700" fill="#ffae00" >CH:01</text>
  <text x="187" y="132" text-anchor="start" font-family="'Roboto Mono','SFMono-Regular',Consolas,monospace" font-size="13" font-weight="700" fill="#ffae00" >520.400 MHz</text>
  <g class="knob" data-scale="knob-medium" filter="url(#shadow)">
<path d="M288.2 112.1L285.1 109.9" stroke="#d5d0c0" stroke-width="1"/>
<path d="M289.4 110.6L286.6 108.1" stroke="#d5d0c0" stroke-width="1"/>
<path d="M290.7 109.3L288.2 106.4" stroke="#d5d0c0" stroke-width="1"/>
<path d="M292.2 108.1L290.1 105.0" stroke="#d5d0c0" stroke-width="1"/>
<path d="M293.8 107.2L292.1 103.8" stroke="#d5d0c0" stroke-width="1"/>
<path d="M295.5 106.4L294.2 102.9" stroke="#d5d0c0" stroke-width="1"/>
<path d="M297.3 105.9L296.4 102.2" stroke="#d5d0c0" stroke-width="1"/>
<path d="M299.1 105.5L298.7 101.8" stroke="#d5d0c0" stroke-width="1"/>
<path d="M301.0 105.4L301.0 101.6" stroke="#d5d0c0" stroke-width="1"/>
<path d="M302.9 105.5L303.3 101.8" stroke="#d5d0c0" stroke-width="1"/>
<path d="M304.7 105.9L305.6 102.2" stroke="#d5d0c0" stroke-width="1"/>
<path d="M306.5 106.4L307.8 102.9" stroke="#d5d0c0" stroke-width="1"/>
<path d="M308.2 107.2L309.9 103.8" stroke="#d5d0c0" stroke-width="1"/>
<path d="M309.8 108.1L311.9 105.0" stroke="#d5d0c0" stroke-width="1"/>
<path d="M311.3 109.3L313.8 106.4" stroke="#d5d0c0" stroke-width="1"/>
<path d="M312.6 110.6L315.4 108.1" stroke="#d5d0c0" stroke-width="1"/>
<path d="M313.8 112.1L316.9 109.9" stroke="#d5d0c0" stroke-width="1"/>
<circle cx="301" cy="121" r="15.579999999999998" fill="url(#metal)" stroke="#050505"/>
<circle cx="301" cy="121" r="11.02" fill="#242424" stroke="#858075"/>
<path d="M301 121L301 111.12" stroke="#f5f0df" stroke-width="2" stroke-linecap="round"/>
</g>

  <text x="170" y="154" text-anchor="start" font-family="'Arial Narrow','Roboto Condensed','Helvetica Neue',Arial,sans-serif" font-size="10" font-weight="700" fill="#e6e1d4" >AF</text>
  <rect x="207" y="147" width="58" height="8" fill="#171717" stroke="#534"/>
  <rect x="211" y="149" width="3" height="4" fill="#ffb300"/><rect x="216" y="149" width="3" height="4" fill="#ffb300"/><rect x="221" y="149" width="3" height="4" fill="#ffb300"/><rect x="226" y="149" width="3" height="4" fill="#ffb300"/><rect x="231" y="149" width="3" height="4" fill="#ffb300"/><rect x="236" y="149" width="3" height="4" fill="#ffb300"/><rect x="241" y="149" width="3" height="4" fill="#ffb300"/><rect x="246" y="149" width="3" height="4" fill="#ffb300"/><rect x="251" y="149" width="3" height="4" fill="#ffb300"/><rect x="256" y="149" width="3" height="4" fill="#ffb300"/>
  <text x="287" y="154" text-anchor="start" font-family="'Arial Narrow','Roboto Condensed','Helvetica Neue',Arial,sans-serif" font-size="10" font-weight="700" fill="#e6e1d4" >SET</text>
</g>
<g filter="url(#shadow)">
  <rect x="377" y="84" width="176" height="82" rx="6" fill="#0b0d0e" stroke="#555"/>
  <rect x="389" y="95" width="96" height="44" rx="4" fill="#171308" stroke="#3e3220"/>
  <text x="407" y="112" text-anchor="start" font-family="'Roboto Mono','SFMono-Regular',Consolas,monospace" font-size="13" font-weight="700" fill="#ffae00" >G:01</text>
  <text x="461" y="112" text-anchor="start" font-family="'Roboto Mono','SFMono-Regular',Consolas,monospace" font-size="13" font-weight="700" fill="#ffae00" >CH:02</text>
  <text x="407" y="132" text-anchor="start" font-family="'Roboto Mono','SFMono-Regular',Consolas,monospace" font-size="13" font-weight="700" fill="#ffae00" >520.200 MHz</text>
  <g class="knob" data-scale="knob-medium" filter="url(#shadow)">
<path d="M508.2 112.1L505.1 109.9" stroke="#d5d0c0" stroke-width="1"/>
<path d="M509.4 110.6L506.6 108.1" stroke="#d5d0c0" stroke-width="1"/>
<path d="M510.7 109.3L508.2 106.4" stroke="#d5d0c0" stroke-width="1"/>
<path d="M512.2 108.1L510.1 105.0" stroke="#d5d0c0" stroke-width="1"/>
<path d="M513.8 107.2L512.1 103.8" stroke="#d5d0c0" stroke-width="1"/>
<path d="M515.5 106.4L514.2 102.9" stroke="#d5d0c0" stroke-width="1"/>
<path d="M517.3 105.9L516.4 102.2" stroke="#d5d0c0" stroke-width="1"/>
<path d="M519.1 105.5L518.7 101.8" stroke="#d5d0c0" stroke-width="1"/>
<path d="M521.0 105.4L521.0 101.6" stroke="#d5d0c0" stroke-width="1"/>
<path d="M522.9 105.5L523.3 101.8" stroke="#d5d0c0" stroke-width="1"/>
<path d="M524.7 105.9L525.6 102.2" stroke="#d5d0c0" stroke-width="1"/>
<path d="M526.5 106.4L527.8 102.9" stroke="#d5d0c0" stroke-width="1"/>
<path d="M528.2 107.2L529.9 103.8" stroke="#d5d0c0" stroke-width="1"/>
<path d="M529.8 108.1L531.9 105.0" stroke="#d5d0c0" stroke-width="1"/>
<path d="M531.3 109.3L533.8 106.4" stroke="#d5d0c0" stroke-width="1"/>
<path d="M532.6 110.6L535.4 108.1" stroke="#d5d0c0" stroke-width="1"/>
<path d="M533.8 112.1L536.9 109.9" stroke="#d5d0c0" stroke-width="1"/>
<circle cx="521" cy="121" r="15.579999999999998" fill="url(#metal)" stroke="#050505"/>
<circle cx="521" cy="121" r="11.02" fill="#242424" stroke="#858075"/>
<path d="M521 121L521 111.12" stroke="#f5f0df" stroke-width="2" stroke-linecap="round"/>
</g>

  <text x="390" y="154" text-anchor="start" font-family="'Arial Narrow','Roboto Condensed','Helvetica Neue',Arial,sans-serif" font-size="10" font-weight="700" fill="#e6e1d4" >AF</text>
  <rect x="427" y="147" width="58" height="8" fill="#171717" stroke="#534"/>
  <rect x="431" y="149" width="3" height="4" fill="#ffb300"/><rect x="436" y="149" width="3" height="4" fill="#ffb300"/><rect x="441" y="149" width="3" height="4" fill="#ffb300"/><rect x="446" y="149" width="3" height="4" fill="#ffb300"/><rect x="451" y="149" width="3" height="4" fill="#ffb300"/><rect x="456" y="149" width="3" height="4" fill="#ffb300"/><rect x="461" y="149" width="3" height="4" fill="#ffb300"/><rect x="466" y="149" width="3" height="4" fill="#ffb300"/><rect x="471" y="149" width="3" height="4" fill="#ffb300"/><rect x="476" y="149" width="3" height="4" fill="#ffb300"/>
  <text x="507" y="154" text-anchor="start" font-family="'Arial Narrow','Roboto Condensed','Helvetica Neue',Arial,sans-serif" font-size="10" font-weight="700" fill="#e6e1d4" >SET</text>
</g>
<g class="trs" data-scale="trs-medium" filter="url(#shadow)">
<circle cx="635" cy="126" r="18.0" fill="url(#metal)" stroke="#050505" stroke-width="1.3"/>
<circle cx="635" cy="126" r="12.24" fill="#090909" stroke="#c9c3b3" stroke-width="1.3"/>
<circle cx="635" cy="126" r="6.12" fill="#1d1d1c" stroke="#050505"/>
<path d="M626.9 118.8C631.76 115.56,638.6 116.1,643.1 120.96" stroke="#fff" opacity="0.18" fill="none"/>
</g>
<g class="knob" data-scale="knob-medium" filter="url(#shadow)">
<path d="M670.2 115.7L666.6 113.1" stroke="#d5d0c0" stroke-width="1"/>
<path d="M671.6 114.0L668.3 111.0" stroke="#d5d0c0" stroke-width="1"/>
<path d="M673.1 112.4L670.2 109.1" stroke="#d5d0c0" stroke-width="1"/>
<path d="M674.8 111.1L672.3 107.5" stroke="#d5d0c0" stroke-width="1"/>
<path d="M676.7 110.0L674.6 106.1" stroke="#d5d0c0" stroke-width="1"/>
<path d="M678.6 109.1L677.1 105.0" stroke="#d5d0c0" stroke-width="1"/>
<path d="M680.7 108.5L679.7 104.2" stroke="#d5d0c0" stroke-width="1"/>
<path d="M682.8 108.1L682.3 103.7" stroke="#d5d0c0" stroke-width="1"/>
<path d="M685.0 108.0L685.0 103.6" stroke="#d5d0c0" stroke-width="1"/>
<path d="M687.2 108.1L687.7 103.7" stroke="#d5d0c0" stroke-width="1"/>
<path d="M689.3 108.5L690.3 104.2" stroke="#d5d0c0" stroke-width="1"/>
<path d="M691.4 109.1L692.9 105.0" stroke="#d5d0c0" stroke-width="1"/>
<path d="M693.3 110.0L695.4 106.1" stroke="#d5d0c0" stroke-width="1"/>
<path d="M695.2 111.1L697.7 107.5" stroke="#d5d0c0" stroke-width="1"/>
<path d="M696.9 112.4L699.8 109.1" stroke="#d5d0c0" stroke-width="1"/>
<path d="M698.4 114.0L701.7 111.0" stroke="#d5d0c0" stroke-width="1"/>
<path d="M699.8 115.7L703.4 113.1" stroke="#d5d0c0" stroke-width="1"/>
<circle cx="685" cy="126" r="18.04" fill="url(#metal)" stroke="#050505"/>
<circle cx="685" cy="126" r="12.76" fill="#242424" stroke="#858075"/>
<path d="M685 126L685 114.56" stroke="#f5f0df" stroke-width="2" stroke-linecap="round"/>
</g>

</svg>