<svg xmlns="http://www.w3.org/2000/svg" width="900" height="420" viewBox="0 0 900 420" role="img" aria-label="RIGHT LINE ARRAY">
<defs>
  <linearGradient id="rackFace" x1="0" y1="0" x2="0" y2="1">
    <stop offset="0" stop-color="#343535"/>
    <stop offset="0.48" stop-color="#222323"/>
    <stop offset="1" stop-color="#111214"/>
  </linearGradient>
  <linearGradient id="rackEdge" x1="0" y1="0" x2="0" y2="1">
    <stop offset="0" stop-color="#777"/>
    <stop offset="0.18" stop-color="#272727"/>
    <stop offset="1" stop-color="#060606"/>
  </linearGradient>
  <linearGradient id="metal" x1="0" y1="0" x2="1" y2="1">
    <stop offset="0" stop-color="#e0ddd0"/>
    <stop offset="0.22" stop-color="#71706a"/>
    <stop offset="0.52" stop-color="#202122"/>
    <stop offset="0.83" stop-color="#0b0c0d"/>
    <stop offset="1" stop-color="#7e7a70"/>
  </linearGradient>
  <linearGradient id="jackCup" x1="0" y1="0" x2="0" y2="1">
    <stop offset="0" stop-color="#1e2021"/>
    <stop offset="0.45" stop-color="#060708"/>
    <stop offset="1" stop-color="#000"/>
  </linearGradient>
  <filter id="shadow" x="-25%" y="-25%" width="150%" height="150%">
    <feDropShadow dx="0" dy="3" stdDeviation="3" flood-color="#000" flood-opacity="0.65"/>
  </filter>
</defs>

<rect x="40" y="24" width="240" height="372" rx="12" fill="url(#rackFace)" stroke="#60615b" stroke-width="1.3" filter="url(#shadow)"/>
<text x="160.0" y="54" text-anchor="middle"
  font-family="'Arial Narrow','Roboto Condensed','Helvetica Neue',Arial,sans-serif"
  font-size="13" font-weight="800" fill="#e8e5da">RIGHT LINE ARRAY</text>
<text x="160.0" y="72" text-anchor="middle"
  font-family="'Arial Narrow','Roboto Condensed','Helvetica Neue',Arial,sans-serif"
  font-size="10" font-weight="700" fill="#c7cdc4">SPEAKER INPUT PANEL</text>

<image href="../panels/full-pa-system-line-array-over-subs-renderstyle-standalone.svg" x="300" y="18" width="560" height="384" preserveAspectRatio="xMidYMid meet"/>

<g font-family="'Arial Narrow','Roboto Condensed','Helvetica Neue',Arial,sans-serif" text-anchor="middle" font-size="12" font-weight="900" fill="#e8e5da">
  <text x="160.0" y="128">HIGH IN</text>
  <text x="160.0" y="218">MID IN</text>
  <text x="160.0" y="308">LOW IN</text>
</g>

<g filter="url(#shadow)">
  <circle cx="160.0" cy="156" r="24" fill="url(#metal)" stroke="#050505" stroke-width="1.2"/>
<circle cx="160.0" cy="156" r="19.2" fill="#111214" stroke="#6b675d" stroke-width=".9"/>
<circle cx="160.0" cy="156" r="11.52" fill="#050607" stroke="#9ea6a0" stroke-width="1"/>
<path d="M 154.0 156 L 166.0 156 M 160.0 150 L 160.0 162" stroke="#9ea6a0" stroke-width="1.5" stroke-linecap="round"/>
  <circle cx="160.0" cy="246" r="24" fill="url(#metal)" stroke="#050505" stroke-width="1.2"/>
<circle cx="160.0" cy="246" r="19.2" fill="#111214" stroke="#6b675d" stroke-width=".9"/>
<circle cx="160.0" cy="246" r="11.52" fill="#050607" stroke="#9ea6a0" stroke-width="1"/>
<path d="M 154.0 246 L 166.0 246 M 160.0 240 L 160.0 252" stroke="#9ea6a0" stroke-width="1.5" stroke-linecap="round"/>
  <circle cx="160.0" cy="336" r="24" fill="url(#metal)" stroke="#050505" stroke-width="1.2"/>
<circle cx="160.0" cy="336" r="19.2" fill="#111214" stroke="#6b675d" stroke-width=".9"/>
<circle cx="160.0" cy="336" r="11.52" fill="#050607" stroke="#9ea6a0" stroke-width="1"/>
<path d="M 154.0 336 L 166.0 336 M 160.0 330 L 160.0 342" stroke="#9ea6a0" stroke-width="1.5" stroke-linecap="round"/>
</g>
</svg>
