<svg xmlns="http://www.w3.org/2000/svg" width="1000" height="260" viewBox="0 0 1000 260" role="img" aria-label="System utility rack scale preserved">
<defs>
  <linearGradient id="rackFace" x1="0" y1="0" x2="0" y2="1"><stop offset="0" stop-color="#343535"/><stop offset="0.48" stop-color="#222323"/><stop offset="1" stop-color="#111214"/></linearGradient>
  <linearGradient id="rackEdge" x1="0" y1="0" x2="0" y2="1"><stop offset="0" stop-color="#777"/><stop offset="0.18" stop-color="#272727"/><stop offset="1" stop-color="#060606"/></linearGradient>
  <linearGradient id="metal" x1="0" y1="0" x2="1" y2="1"><stop offset="0" stop-color="#e0ddd0"/><stop offset="0.22" stop-color="#71706a"/><stop offset="0.52" stop-color="#202122"/><stop offset="0.83" stop-color="#0b0c0d"/><stop offset="1" stop-color="#7e7a70"/></linearGradient>
  <linearGradient id="blueMetal" x1="0" y1="0" x2="1" y2="1"><stop offset="0" stop-color="#5aa2ff"/><stop offset="0.4" stop-color="#1763c7"/><stop offset="1" stop-color="#07306d"/></linearGradient>
  <linearGradient id="goldPin" x1="0" y1="0" x2="1" y2="1"><stop offset="0" stop-color="#ffe7a6"/><stop offset="0.45" stop-color="#c88c2a"/><stop offset="1" stop-color="#5f3b0d"/></linearGradient>
  <linearGradient id="jackCup" x1="0" y1="0" x2="0" y2="1"><stop offset="0" stop-color="#1e2021"/><stop offset="0.45" stop-color="#060708"/><stop offset="1" stop-color="#000"/></linearGradient>
  <linearGradient id="amberLens" x1="0" y1="0" x2="1" y2="1"><stop offset="0" stop-color="#ffe5a6"/><stop offset="0.38" stop-color="#d99619"/><stop offset="0.72" stop-color="#5d3200"/><stop offset="1" stop-color="#ffbd2d"/></linearGradient>
  <filter id="shadow" x="-25%" y="-25%" width="150%" height="150%"><feDropShadow dx="0" dy="3" stdDeviation="3" flood-color="#000" flood-opacity="0.65"/></filter>
  <filter id="softGlow" x="-70%" y="-70%" width="240%" height="240%"><feGaussianBlur stdDeviation="3" result="b"/><feMerge><feMergeNode in="b"/><feMergeNode in="SourceGraphic"/></feMerge></filter>
</defs>
<rect x="4" y="6" width="992" height="248" rx="8" fill="url(#rackEdge)" filter="url(#shadow)"/>
<rect x="18" y="14" width="964" height="232" rx="5" fill="url(#rackFace)" stroke="#5e5e58" stroke-width="1.2"/>
<path d="M22 18H978" stroke="#7d7a70" stroke-opacity="0.5"/>
<path d="M22 242H978" stroke="#000" stroke-opacity="0.8"/>
<rect x="3" y="18" width="12" height="224" rx="5" fill="#111" stroke="#4e4e4a"/>
<rect x="6" y="28" width="6" height="204" rx="3" fill="url(#metal)" opacity="0.78"/>
<circle cx="9" cy="20" r="4.2" fill="#060606" stroke="#8c8a82" stroke-width="1"/>
<circle cx="9" cy="240" r="4.2" fill="#060606" stroke="#8c8a82" stroke-width="1"/>
<rect x="985" y="18" width="12" height="224" rx="5" fill="#111" stroke="#4e4e4a"/>
<rect x="988" y="28" width="6" height="204" rx="3" fill="url(#metal)" opacity="0.78"/>
<circle cx="991" cy="20" r="4.2" fill="#060606" stroke="#8c8a82" stroke-width="1"/>
<circle cx="991" cy="240" r="4.2" fill="#060606" stroke="#8c8a82" stroke-width="1"/>
<text x="20" y="-6" text-anchor="start" font-family="'Arial Narrow','Roboto Condensed','Helvetica Neue',Arial,sans-serif" font-size="16" font-weight="800" fill="#e7e7de" >4. SYSTEM UTILITY RACK</text>
<text x="115" y="55" text-anchor="middle" font-family="'Arial Narrow','Roboto Condensed','Helvetica Neue',Arial,sans-serif" font-size="13" font-weight="800" fill="#e8e5da" >POWER IN</text>
<text x="255" y="55" text-anchor="middle" font-family="'Arial Narrow','Roboto Condensed','Helvetica Neue',Arial,sans-serif" font-size="13" font-weight="800" fill="#e8e5da" >FUSE</text>
<text x="395" y="55" text-anchor="middle" font-family="'Arial Narrow','Roboto Condensed','Helvetica Neue',Arial,sans-serif" font-size="13" font-weight="800" fill="#e8e5da" >POWER OUT</text>
<text x="560" y="55" text-anchor="middle" font-family="'Arial Narrow','Roboto Condensed','Helvetica Neue',Arial,sans-serif" font-size="13" font-weight="800" fill="#e8e5da" >NETWORK</text>
<text x="725" y="55" text-anchor="middle" font-family="'Arial Narrow','Roboto Condensed','Helvetica Neue',Arial,sans-serif" font-size="13" font-weight="800" fill="#e8e5da" >GROUND LIFT</text>
<text x="875" y="55" text-anchor="middle" font-family="'Arial Narrow','Roboto Condensed','Helvetica Neue',Arial,sans-serif" font-size="13" font-weight="800" fill="#e8e5da" >LAMP</text>
<path d="M190 60V204" stroke="#9b9b92" stroke-width="1.2" opacity="0.7"/>
<path d="M320 60V204" stroke="#9b9b92" stroke-width="1.2" opacity="0.7"/>
<path d="M475 60V204" stroke="#9b9b92" stroke-width="1.2" opacity="0.7"/>
<path d="M650 60V204" stroke="#9b9b92" stroke-width="1.2" opacity="0.7"/>
<path d="M805 60V204" stroke="#9b9b92" stroke-width="1.2" opacity="0.7"/>
<g class="speakon" data-scale="powercon-large" filter="url(#shadow)">
<rect x="84.0" y="97.0" width="62" height="62" rx="7" fill="url(#blueMetal)" stroke="#051128" stroke-width="1.5"/>
<circle cx="115" cy="128" r="21.080000000000002" fill="#071025" stroke="#2e81ff" stroke-width="2"/>
<path d="M115 112.5a15.5 15.5 0 1 0 0 31.0" fill="none" stroke="#050812" stroke-width="8.06" stroke-linecap="round"/>
<rect x="110.66" y="114.36" width="8.680000000000001" height="13.64" rx="2" fill="#2e81ff" opacity="0.65"/>
<circle cx="93.3" cy="106.3" r="2.2" fill="#050505" stroke="#9b988d" stroke-width="1"/><path d="M92.1 107.5L94.5 105.1" stroke="#777" stroke-width="0.8"/>
<circle cx="136.7" cy="149.7" r="2.2" fill="#050505" stroke="#9b988d" stroke-width="1"/><path d="M135.5 150.89999999999998L137.89999999999998 148.5" stroke="#777" stroke-width="0.8"/>
</g>

<text x="115" y="190" text-anchor="middle" font-family="'Arial Narrow','Roboto Condensed','Helvetica Neue',Arial,sans-serif" font-size="10" font-weight="700" fill="#e8e5da" >100–240V~ 50/60Hz</text>
<text x="115" y="206" text-anchor="middle" font-family="'Arial Narrow','Roboto Condensed','Helvetica Neue',Arial,sans-serif" font-size="10" font-weight="700" fill="#e8e5da" >16A MAX</text>
<g filter="url(#shadow)"><circle cx="255" cy="128" r="32" fill="url(#metal)" stroke="#050505"/><path d="M240 128h30M255 113v30" stroke="#111" stroke-width="6" stroke-linecap="round"/><circle cx="255" cy="128" r="20" fill="none" stroke="#222"/></g>
<text x="255" y="190" text-anchor="middle" font-family="'Arial Narrow','Roboto Condensed','Helvetica Neue',Arial,sans-serif" font-size="10" font-weight="700" fill="#e8e5da" >T10A L 250V</text>
<g class="speakon" data-scale="powercon-large" filter="url(#shadow)">
<rect x="364.0" y="97.0" width="62" height="62" rx="7" fill="url(#metal)" stroke="#051128" stroke-width="1.5"/>
<circle cx="395" cy="128" r="21.080000000000002" fill="#071025" stroke="#2e81ff" stroke-width="2"/>
<path d="M395 112.5a15.5 15.5 0 1 0 0 31.0" fill="none" stroke="#050812" stroke-width="8.06" stroke-linecap="round"/>
<rect x="390.66" y="114.36" width="8.680000000000001" height="13.64" rx="2" fill="#2e81ff" opacity="0.65"/>
<circle cx="373.3" cy="106.3" r="2.2" fill="#050505" stroke="#9b988d" stroke-width="1"/><path d="M372.1 107.5L374.5 105.1" stroke="#777" stroke-width="0.8"/>
<circle cx="416.7" cy="149.7" r="2.2" fill="#050505" stroke="#9b988d" stroke-width="1"/><path d="M415.5 150.89999999999998L417.9 148.5" stroke="#777" stroke-width="0.8"/>
</g>

<text x="395" y="190" text-anchor="middle" font-family="'Arial Narrow','Roboto Condensed','Helvetica Neue',Arial,sans-serif" font-size="10" font-weight="700" fill="#e8e5da" >LINK THRU</text>
<text x="395" y="206" text-anchor="middle" font-family="'Arial Narrow','Roboto Condensed','Helvetica Neue',Arial,sans-serif" font-size="10" font-weight="700" fill="#e8e5da" >16A MAX</text>
<g class="rj45" data-scale="rj45-compact" filter="url(#shadow)">
<rect x="533.0" y="107.0" width="54" height="42" rx="3" fill="#111" stroke="#b8b4a8" stroke-width="1.3"/>
<rect x="540.56" y="119.6" width="38.879999999999995" height="17.64" fill="#050505" stroke="#333"/>
<rect x="543.8" y="128.42" width="1.8900000000000001" height="7.56" fill="#d9a946"/><rect x="548.39" y="128.42" width="1.8900000000000001" height="7.56" fill="#d9a946"/><rect x="552.9799999999999" y="128.42" width="1.8900000000000001" height="7.56" fill="#d9a946"/><rect x="557.5699999999999" y="128.42" width="1.8900000000000001" height="7.56" fill="#d9a946"/><rect x="562.16" y="128.42" width="1.8900000000000001" height="7.56" fill="#d9a946"/><rect x="566.75" y="128.42" width="1.8900000000000001" height="7.56" fill="#d9a946"/><rect x="571.3399999999999" y="128.42" width="1.8900000000000001" height="7.56" fill="#d9a946"/>
<circle cx="541.64" cy="141.44" r="3" fill="#9ddb40"/><circle cx="578.36" cy="141.44" r="3" fill="#ffc545"/>
</g>

<circle cx="528" cy="176" r="4" fill="#a8e646"/><circle cx="528" cy="194" r="4" fill="#a8e646"/>
<text x="560" y="180" text-anchor="middle" font-family="'Arial Narrow','Roboto Condensed','Helvetica Neue',Arial,sans-serif" font-size="10" font-weight="700" fill="#e8e5da" >PRIMARY</text>
<text x="560" y="198" text-anchor="middle" font-family="'Arial Narrow','Roboto Condensed','Helvetica Neue',Arial,sans-serif" font-size="10" font-weight="700" fill="#e8e5da" >SECONDARY</text>
<g filter="url(#shadow)"><path d="M725 112v36" stroke="#d8d5cc" stroke-width="7" stroke-linecap="round"/><circle cx="725" cy="130" r="18" fill="url(#metal)" stroke="#050505"/><path d="M725 113v34" stroke="#111" stroke-width="3"/></g>
<text x="725" y="190" text-anchor="middle" font-family="'Arial Narrow','Roboto Condensed','Helvetica Neue',Arial,sans-serif" font-size="10" font-weight="700" fill="#e8e5da" >GND</text>
<g class="amber-lamp" data-scale="lamp-medium" filter="url(#shadow)">
  <circle cx="875" cy="128" r="27.0" fill="url(#metal)" stroke="#050505" stroke-width="1.4"/>
  <circle cx="875" cy="128" r="18.360000000000003" fill="url(#amberLens)" stroke="#3c2100" stroke-width="1"/>
  <ellipse cx="869.6" cy="121.52" rx="5.94" ry="3.5100000000000002" fill="#fff2c6" opacity="0.55"/>
  <path d="M865.82 130.16C872.3 127.19,877.7 127.19,884.18 130.16" stroke="#fff1a8" stroke-width="2" fill="none" opacity="0.7"/>
</g>
</svg>