<svg xmlns="http://www.w3.org/2000/svg" width="592" height="286" viewBox="0 0 592 286" role="img" aria-hidden="true" focusable="false" class="sf-broadcast-svg" data-sf-asset="section-sources.svg">

  <defs>
    <linearGradient id="sfMetalDark" x1="0" x2="0" y1="0" y2="1">
      <stop offset="0" stop-color="#2b1d10"/>
      <stop offset="0.16" stop-color="#17120c"/>
      <stop offset="0.58" stop-color="#07090b"/>
      <stop offset="1" stop-color="#020303"/>
    </linearGradient>
    <linearGradient id="sfBlueGlass" x1="0" x2="0" y1="0" y2="1">
      <stop offset="0" stop-color="#123348"/>
      <stop offset="0.14" stop-color="#0d2433"/>
      <stop offset="0.64" stop-color="#071016"/>
      <stop offset="1" stop-color="#030506"/>
    </linearGradient>
    <linearGradient id="sfRedWell" x1="0" x2="0" y1="0" y2="1">
      <stop offset="0" stop-color="#32140f"/>
      <stop offset="0.48" stop-color="#23100d"/>
      <stop offset="1" stop-color="#090504"/>
    </linearGradient>
    <linearGradient id="sfWarmEdge" x1="0" x2="1" y1="0" y2="1">
      <stop offset="0" stop-color="#f2c46d" stop-opacity="0.38"/>
      <stop offset="0.4" stop-color="#9b6f32" stop-opacity="0.22"/>
      <stop offset="1" stop-color="#000000" stop-opacity="0.25"/>
    </linearGradient>
    <linearGradient id="sfGloss" x1="0" x2="0" y1="0" y2="1">
      <stop offset="0" stop-color="#ffffff" stop-opacity="0.16"/>
      <stop offset="0.55" stop-color="#ffffff" stop-opacity="0.04"/>
      <stop offset="1" stop-color="#ffffff" stop-opacity="0"/>
    </linearGradient>
    <radialGradient id="sfAccentGlow" cx="50%" cy="50%" r="55%">
      <stop offset="0" stop-color="#9b6f32" stop-opacity="0.72"/>
      <stop offset="0.55" stop-color="#9b6f32" stop-opacity="0.25"/>
      <stop offset="1" stop-color="#000000" stop-opacity="0"/>
    </radialGradient>
    <filter id="sfDrop" x="-30%" y="-30%" width="160%" height="170%">
      <feDropShadow dx="0" dy="10" stdDeviation="9" flood-color="#000000" flood-opacity="0.58"/>
    </filter>
    <filter id="sfSoftGlow" x="-80%" y="-80%" width="260%" height="260%">
      <feGaussianBlur stdDeviation="4" result="blur"/>
      <feColorMatrix in="blur" type="matrix" values="1 0 0 0 0  0 1 0 0 0  0 0 1 0 0  0 0 0 .75 0" result="glow"/>
      <feMerge><feMergeNode in="glow"/><feMergeNode in="SourceGraphic"/></feMerge>
    </filter>
    <filter id="sfInner" x="-20%" y="-20%" width="140%" height="140%">
      <feOffset dx="0" dy="3"/>
      <feGaussianBlur stdDeviation="3" result="offset-blur"/>
      <feComposite operator="out" in="SourceGraphic" in2="offset-blur" result="inverse"/>
      <feFlood flood-color="#000000" flood-opacity="0.68" result="color"/>
      <feComposite operator="in" in="color" in2="inverse" result="shadow"/>
      <feComposite operator="over" in="shadow" in2="SourceGraphic"/>
    </filter>
    <pattern id="sfGrain" width="12" height="12" patternUnits="userSpaceOnUse">
      <rect width="1" height="1" x="1" y="1" fill="#fff" opacity="0.035"/>
      <rect width="1" height="1" x="7" y="3" fill="#000" opacity="0.06"/>
      <rect width="1" height="1" x="4" y="9" fill="#fff" opacity="0.025"/>
      <rect width="1" height="1" x="10" y="10" fill="#000" opacity="0.05"/>
    </pattern>
  </defs>

  <g class="sf-panel-shell" pointer-events="none">
    <rect x="12" y="16" width="586" height="278" rx="18" fill="#000" opacity=".42" filter="url(#sfDrop)"/>
    <rect x="10" y="11" width="584" height="278" rx="18" fill="#120b06" opacity=".76"/>
    <rect x="0" y="0" width="592" height="286" rx="18" fill="url(#sfMetalDark)" stroke="#9b6f32" stroke-opacity=".78" stroke-width="1.6"/>
    <rect x="7" y="7" width="578" height="11" rx="8" fill="url(#sfWarmEdge)" opacity=".9"/>
    <rect x="16" y="17" width="560" height="252" rx="13" fill="url(#sfBlueGlass)" stroke="#31566d" stroke-opacity=".72"/>
    <rect x="23" y="23" width="546" height="65" rx="10" fill="url(#sfGloss)"/>
    <rect x="20" y="241" width="552" height="22" rx="11" fill="#000" opacity=".25"/>
    <rect width="592" height="286" rx="18" fill="url(#sfGrain)" opacity=".55"/>
    <g class="sf-screws" opacity=".92">
      <g transform="translate(23 23)" class="sf-screw-head">
      <circle cx="9" cy="9" r="9" fill="#0a0907"/>
      <circle cx="9" cy="9" r="7.6" fill="#4a4032"/>
      <path d="M4 9.5h10" stroke="#111" stroke-width="2" stroke-linecap="round"/>
      <ellipse cx="6.5" cy="5" rx="4" ry="2" fill="#fff4d6" opacity=".22"/>
    </g>
      <g transform="translate(551 23)" class="sf-screw-head">
      <circle cx="9" cy="9" r="9" fill="#0a0907"/>
      <circle cx="9" cy="9" r="7.6" fill="#4a4032"/>
      <path d="M4 9.5h10" stroke="#111" stroke-width="2" stroke-linecap="round"/>
      <ellipse cx="6.5" cy="5" rx="4" ry="2" fill="#fff4d6" opacity=".22"/>
    </g>
      <g transform="translate(23 245)" class="sf-screw-head">
      <circle cx="9" cy="9" r="9" fill="#0a0907"/>
      <circle cx="9" cy="9" r="7.6" fill="#4a4032"/>
      <path d="M4 9.5h10" stroke="#111" stroke-width="2" stroke-linecap="round"/>
      <ellipse cx="6.5" cy="5" rx="4" ry="2" fill="#fff4d6" opacity=".22"/>
    </g>
      <g transform="translate(551 245)" class="sf-screw-head">
      <circle cx="9" cy="9" r="9" fill="#0a0907"/>
      <circle cx="9" cy="9" r="7.6" fill="#4a4032"/>
      <path d="M4 9.5h10" stroke="#111" stroke-width="2" stroke-linecap="round"/>
      <ellipse cx="6.5" cy="5" rx="4" ry="2" fill="#fff4d6" opacity=".22"/>
    </g>
    </g>
    
  <g class="sf-section-badge" transform="translate(22 19)">
    <rect width="31" height="28" rx="7" fill="url(#sfBlueGlass)" stroke="#8fbdd6" stroke-opacity=".65"/>
    <text x="15.5" y="20" text-anchor="middle" font-family="Inter, Arial, sans-serif" font-size="16" font-weight="900" fill="#e8f7ff">2</text>
  </g>
    
  <rect x="64" y="18" width="360" height="33" rx="9" fill="#050708" opacity="0.68"/>
  <text x="82" y="40" font-family="Inter, Arial, sans-serif" font-size="16" font-weight="800" fill="#cfe8f6" letter-spacing="1.2">SOURCES</text>
  </g>
</svg>
