<svg xmlns="http://www.w3.org/2000/svg" width="72" height="58" viewBox="0 0 72 58" role="img" aria-label="RJ45 compact network jack">
<defs>
  <linearGradient id="rackFace" x1="0" y1="0" x2="0" y2="1"><stop offset="0" stop-color="#343535"/><stop offset="0.48" stop-color="#222323"/><stop offset="1" stop-color="#111214"/></linearGradient>
  <linearGradient id="rackEdge" x1="0" y1="0" x2="0" y2="1"><stop offset="0" stop-color="#777"/><stop offset="0.18" stop-color="#272727"/><stop offset="1" stop-color="#060606"/></linearGradient>
  <linearGradient id="metal" x1="0" y1="0" x2="1" y2="1"><stop offset="0" stop-color="#e0ddd0"/><stop offset="0.22" stop-color="#71706a"/><stop offset="0.52" stop-color="#202122"/><stop offset="0.83" stop-color="#0b0c0d"/><stop offset="1" stop-color="#7e7a70"/></linearGradient>
  <linearGradient id="blueMetal" x1="0" y1="0" x2="1" y2="1"><stop offset="0" stop-color="#5aa2ff"/><stop offset="0.4" stop-color="#1763c7"/><stop offset="1" stop-color="#07306d"/></linearGradient>
  <linearGradient id="goldPin" x1="0" y1="0" x2="1" y2="1"><stop offset="0" stop-color="#ffe7a6"/><stop offset="0.45" stop-color="#c88c2a"/><stop offset="1" stop-color="#5f3b0d"/></linearGradient>
  <linearGradient id="jackCup" x1="0" y1="0" x2="0" y2="1"><stop offset="0" stop-color="#1e2021"/><stop offset="0.45" stop-color="#060708"/><stop offset="1" stop-color="#000"/></linearGradient>
  <linearGradient id="amberLens" x1="0" y1="0" x2="1" y2="1"><stop offset="0" stop-color="#ffe5a6"/><stop offset="0.38" stop-color="#d99619"/><stop offset="0.72" stop-color="#5d3200"/><stop offset="1" stop-color="#ffbd2d"/></linearGradient>
  <filter id="shadow" x="-25%" y="-25%" width="150%" height="150%"><feDropShadow dx="0" dy="3" stdDeviation="3" flood-color="#000" flood-opacity="0.65"/></filter>
  <filter id="softGlow" x="-70%" y="-70%" width="240%" height="240%"><feGaussianBlur stdDeviation="3" result="b"/><feMerge><feMergeNode in="b"/><feMergeNode in="SourceGraphic"/></feMerge></filter>
</defs>
<g class="rj45" data-scale="rj45-compact" filter="url(#shadow)">
<rect x="13.0" y="11.0" width="46" height="34" rx="3" fill="#111" stroke="#b8b4a8" stroke-width="1.3"/>
<rect x="19.44" y="21.2" width="33.12" height="14.28" fill="#050505" stroke="#333"/>
<rect x="22.200000000000003" y="28.34" width="1.61" height="6.12" fill="#d9a946"/><rect x="26.110000000000003" y="28.34" width="1.61" height="6.12" fill="#d9a946"/><rect x="30.020000000000003" y="28.34" width="1.61" height="6.12" fill="#d9a946"/><rect x="33.93000000000001" y="28.34" width="1.61" height="6.12" fill="#d9a946"/><rect x="37.84" y="28.34" width="1.61" height="6.12" fill="#d9a946"/><rect x="41.75" y="28.34" width="1.61" height="6.12" fill="#d9a946"/><rect x="45.660000000000004" y="28.34" width="1.61" height="6.12" fill="#d9a946"/>
<circle cx="20.36" cy="38.88" r="3" fill="#9ddb40"/><circle cx="51.64" cy="38.88" r="3" fill="#ffc545"/>
</g>

</svg>