<svg xmlns="http://www.w3.org/2000/svg" width="92" height="92" viewBox="0 0 92 92" role="img" aria-label="Speakon NL4 large connector">
<defs>
  <linearGradient id="rackFace" x1="0" y1="0" x2="0" y2="1"><stop offset="0" stop-color="#343535"/><stop offset="0.48" stop-color="#222323"/><stop offset="1" stop-color="#111214"/></linearGradient>
  <linearGradient id="rackEdge" x1="0" y1="0" x2="0" y2="1"><stop offset="0" stop-color="#777"/><stop offset="0.18" stop-color="#272727"/><stop offset="1" stop-color="#060606"/></linearGradient>
  <linearGradient id="metal" x1="0" y1="0" x2="1" y2="1"><stop offset="0" stop-color="#e0ddd0"/><stop offset="0.22" stop-color="#71706a"/><stop offset="0.52" stop-color="#202122"/><stop offset="0.83" stop-color="#0b0c0d"/><stop offset="1" stop-color="#7e7a70"/></linearGradient>
  <linearGradient id="blueMetal" x1="0" y1="0" x2="1" y2="1"><stop offset="0" stop-color="#5aa2ff"/><stop offset="0.4" stop-color="#1763c7"/><stop offset="1" stop-color="#07306d"/></linearGradient>
  <linearGradient id="goldPin" x1="0" y1="0" x2="1" y2="1"><stop offset="0" stop-color="#ffe7a6"/><stop offset="0.45" stop-color="#c88c2a"/><stop offset="1" stop-color="#5f3b0d"/></linearGradient>
  <linearGradient id="jackCup" x1="0" y1="0" x2="0" y2="1"><stop offset="0" stop-color="#1e2021"/><stop offset="0.45" stop-color="#060708"/><stop offset="1" stop-color="#000"/></linearGradient>
  <linearGradient id="amberLens" x1="0" y1="0" x2="1" y2="1"><stop offset="0" stop-color="#ffe5a6"/><stop offset="0.38" stop-color="#d99619"/><stop offset="0.72" stop-color="#5d3200"/><stop offset="1" stop-color="#ffbd2d"/></linearGradient>
  <filter id="shadow" x="-25%" y="-25%" width="150%" height="150%"><feDropShadow dx="0" dy="3" stdDeviation="3" flood-color="#000" flood-opacity="0.65"/></filter>
  <filter id="softGlow" x="-70%" y="-70%" width="240%" height="240%"><feGaussianBlur stdDeviation="3" result="b"/><feMerge><feMergeNode in="b"/><feMergeNode in="SourceGraphic"/></feMerge></filter>
</defs>
<g class="speakon" data-scale="speakon-large" filter="url(#shadow)">
<rect x="15.0" y="15.0" width="62" height="62" rx="7" fill="url(#blueMetal)" stroke="#051128" stroke-width="1.5"/>
<circle cx="46" cy="46" r="21.080000000000002" fill="#071025" stroke="#2e81ff" stroke-width="2"/>
<path d="M46 30.5a15.5 15.5 0 1 0 0 31.0" fill="none" stroke="#050812" stroke-width="8.06" stroke-linecap="round"/>
<rect x="41.66" y="32.36" width="8.680000000000001" height="13.64" rx="2" fill="#2e81ff" opacity="0.65"/>
<circle cx="24.3" cy="24.3" r="2.2" fill="#050505" stroke="#9b988d" stroke-width="1"/><path d="M23.1 25.5L25.5 23.1" stroke="#777" stroke-width="0.8"/>
<circle cx="67.7" cy="67.7" r="2.2" fill="#050505" stroke="#9b988d" stroke-width="1"/><path d="M66.5 68.9L68.9 66.5" stroke="#777" stroke-width="0.8"/>
</g>

</svg>