<svg xmlns="http://www.w3.org/2000/svg" width="96" height="96" viewBox="0 0 96 96" role="img" aria-label="XLR female large panel jack">
<defs>
  <linearGradient id="rackFace" x1="0" y1="0" x2="0" y2="1"><stop offset="0" stop-color="#343535"/><stop offset="0.48" stop-color="#222323"/><stop offset="1" stop-color="#111214"/></linearGradient>
  <linearGradient id="rackEdge" x1="0" y1="0" x2="0" y2="1"><stop offset="0" stop-color="#777"/><stop offset="0.18" stop-color="#272727"/><stop offset="1" stop-color="#060606"/></linearGradient>
  <linearGradient id="metal" x1="0" y1="0" x2="1" y2="1"><stop offset="0" stop-color="#e0ddd0"/><stop offset="0.22" stop-color="#71706a"/><stop offset="0.52" stop-color="#202122"/><stop offset="0.83" stop-color="#0b0c0d"/><stop offset="1" stop-color="#7e7a70"/></linearGradient>
  <linearGradient id="blueMetal" x1="0" y1="0" x2="1" y2="1"><stop offset="0" stop-color="#5aa2ff"/><stop offset="0.4" stop-color="#1763c7"/><stop offset="1" stop-color="#07306d"/></linearGradient>
  <linearGradient id="goldPin" x1="0" y1="0" x2="1" y2="1"><stop offset="0" stop-color="#ffe7a6"/><stop offset="0.45" stop-color="#c88c2a"/><stop offset="1" stop-color="#5f3b0d"/></linearGradient>
  <linearGradient id="jackCup" x1="0" y1="0" x2="0" y2="1"><stop offset="0" stop-color="#1e2021"/><stop offset="0.45" stop-color="#060708"/><stop offset="1" stop-color="#000"/></linearGradient>
  <linearGradient id="amberLens" x1="0" y1="0" x2="1" y2="1"><stop offset="0" stop-color="#ffe5a6"/><stop offset="0.38" stop-color="#d99619"/><stop offset="0.72" stop-color="#5d3200"/><stop offset="1" stop-color="#ffbd2d"/></linearGradient>
  <filter id="shadow" x="-25%" y="-25%" width="150%" height="150%"><feDropShadow dx="0" dy="3" stdDeviation="3" flood-color="#000" flood-opacity="0.65"/></filter>
  <filter id="softGlow" x="-70%" y="-70%" width="240%" height="240%"><feGaussianBlur stdDeviation="3" result="b"/><feMerge><feMergeNode in="b"/><feMergeNode in="SourceGraphic"/></feMerge></filter>
</defs>
<g class="xlr female" data-scale="xlr-large" filter="url(#shadow)">
<circle cx="22.1" cy="25.6" r="5.6" fill="#111" stroke="#5e5b54" stroke-width="1.225"/>
<circle cx="73.9" cy="70.4" r="5.6" fill="#111" stroke="#5e5b54" stroke-width="1.225"/>
<circle cx="48" cy="48" r="35" fill="url(#metal)" stroke="#050505" stroke-width="1.82"/>
<circle cx="48" cy="48" r="30.1" fill="#121314" stroke="#817d72" stroke-width="1.225" opacity="0.9"/>
<circle cx="48" cy="48" r="24.5" fill="url(#jackCup)" stroke="#68645b" stroke-width="1.225"/>
<circle cx="48" cy="48" r="15.75" fill="#070808" stroke="#2f3030" stroke-width="0.91"/>
<path d="M32.6 35.75C42.4 30.5 56.05 30.85 63.75 37.5" stroke="#fff" opacity="0.14" fill="none" stroke-width="1.82"/>
<rect x="38.375" y="15.45" width="19.25" height="6.3" rx="3.15" fill="#c7c0ae" stroke="#302b24" stroke-width="0.7"/>
<text x="48" y="19.734" text-anchor="middle" font-family="'Arial Narrow','Roboto Condensed','Helvetica Neue',Arial,sans-serif" font-size="5.6" font-weight="800" fill="#24221e">PUSH</text>
<circle cx="39.425" cy="42.925" r="4.122" fill="#050505" stroke="#5d5a52" stroke-width="0.875"/>
<circle cx="38.62" cy="42.12" r="1.159" fill="#1c1d1d" opacity="0.75"/>
<circle cx="56.575" cy="42.925" r="4.122" fill="#050505" stroke="#5d5a52" stroke-width="0.875"/>
<circle cx="55.77" cy="42.12" r="1.159" fill="#1c1d1d" opacity="0.75"/>
<circle cx="48" cy="59.375" r="4.122" fill="#050505" stroke="#5d5a52" stroke-width="0.875"/>
<circle cx="47.195" cy="58.57" r="1.159" fill="#1c1d1d" opacity="0.75"/>
<circle cx="23.5" cy="26.3" r="2.975" fill="#050505" stroke="#9b988d" stroke-width="0.98"/>
<path d="M21.358 28.442L25.642 24.158" stroke="#777" stroke-width="0.63"/>
<circle cx="72.5" cy="69.7" r="2.975" fill="#050505" stroke="#9b988d" stroke-width="0.98"/>
<path d="M70.358 71.842L74.642 67.558" stroke="#777" stroke-width="0.63"/>
</g>
</svg>