<svg xmlns="http://www.w3.org/2000/svg" width="244" height="140" viewBox="0 0 244 140" fill="none" >
<defs>
<filter id="shadow" x="-20%" y="-20%" width="140%" height="150%"><feDropShadow dx="0" dy="8" stdDeviation="8" flood-color="#000" flood-opacity="0.55"/></filter>
<filter id="softShadow" x="-30%" y="-30%" width="160%" height="160%"><feDropShadow dx="0" dy="4" stdDeviation="5" flood-color="#000" flood-opacity="0.50"/></filter>
<filter id="glowGreen" x="-40%" y="-40%" width="180%" height="180%"><feDropShadow dx="0" dy="0" stdDeviation="4" flood-color="#8be83b" flood-opacity="0.85"/></filter>
<filter id="glowBlue" x="-50%" y="-50%" width="200%" height="200%"><feDropShadow dx="0" dy="0" stdDeviation="6" flood-color="#57c7ff" flood-opacity="0.8"/></filter>
<filter id="glowRed" x="-50%" y="-50%" width="200%" height="200%"><feDropShadow dx="0" dy="0" stdDeviation="5" flood-color="#ff3b35" flood-opacity="0.75"/></filter>
<linearGradient id="rackFace" x1="0" y1="0" x2="0" y2="1"><stop offset="0" stop-color="#2a2520"/><stop offset="0.45" stop-color="#111110"/><stop offset="1" stop-color="#060606"/></linearGradient>
<linearGradient id="rackBevel" x1="0" y1="0" x2="0" y2="1"><stop offset="0" stop-color="#6d5b45"/><stop offset="0.12" stop-color="#1f1a15"/><stop offset="0.88" stop-color="#070707"/><stop offset="1" stop-color="#403522"/></linearGradient>
<linearGradient id="paper" x1="0" y1="0" x2="1" y2="1"><stop offset="0" stop-color="#f7ecd7"/><stop offset="0.55" stop-color="#eadabf"/><stop offset="1" stop-color="#c9aa7b"/></linearGradient>
<linearGradient id="paperEdge" x1="0" y1="0" x2="0" y2="1"><stop offset="0" stop-color="#fff8e8"/><stop offset="1" stop-color="#c6a06f"/></linearGradient>
<linearGradient id="goldCard" x1="0" y1="0" x2="0" y2="1"><stop offset="0" stop-color="#fae5aa"/><stop offset="1" stop-color="#caa65d"/></linearGradient>
<linearGradient id="blueButton" x1="0" y1="0" x2="0" y2="1"><stop offset="0" stop-color="#1d6b93"/><stop offset="1" stop-color="#0a2638"/></linearGradient>
<radialGradient id="glassAmber" cx="35%" cy="28%" r="70%"><stop offset="0" stop-color="#fff5c7"/><stop offset="0.35" stop-color="#f6b337"/><stop offset="1" stop-color="#4d1f04"/></radialGradient>
<radialGradient id="lampGlow" cx="50%" cy="40%" r="60%"><stop offset="0" stop-color="#fff5c7" stop-opacity="0.95"/><stop offset="0.6" stop-color="#ffb546" stop-opacity="0.25"/><stop offset="1" stop-color="#ffb546" stop-opacity="0"/></radialGradient>

</defs>
<rect x="0" y="0" width="244" height="140" rx="5" fill="url(#rackFace)" opacity="1" stroke="#4a3420" stroke-width="1.2" filter="url(#shadow)"/><text x="14" y="22" fill="#c8b99d" font-family="Inter,Arial,sans-serif" font-size="11" font-weight="700" text-anchor="start" opacity="1">AUDIO ANALYZER</text><rect x="18" y="34" width="208" height="82" rx="3" fill="#030405" opacity="1" stroke="#202a2d" stroke-width="1"/><path d="M30 40V111" stroke="#24343b" stroke-width="0.7" fill="none" opacity="0.55" stroke-linecap="round" stroke-linejoin="round"/><path d="M54 40V111" stroke="#24343b" stroke-width="0.7" fill="none" opacity="0.55" stroke-linecap="round" stroke-linejoin="round"/><path d="M78 40V111" stroke="#24343b" stroke-width="0.7" fill="none" opacity="0.55" stroke-linecap="round" stroke-linejoin="round"/><path d="M102 40V111" stroke="#24343b" stroke-width="0.7" fill="none" opacity="0.55" stroke-linecap="round" stroke-linejoin="round"/><path d="M126 40V111" stroke="#24343b" stroke-width="0.7" fill="none" opacity="0.55" stroke-linecap="round" stroke-linejoin="round"/><path d="M150 40V111" stroke="#24343b" stroke-width="0.7" fill="none" opacity="0.55" stroke-linecap="round" stroke-linejoin="round"/><path d="M174 40V111" stroke="#24343b" stroke-width="0.7" fill="none" opacity="0.55" stroke-linecap="round" stroke-linejoin="round"/><path d="M198 40V111" stroke="#24343b" stroke-width="0.7" fill="none" opacity="0.55" stroke-linecap="round" stroke-linejoin="round"/><path d="M222 40V111" stroke="#24343b" stroke-width="0.7" fill="none" opacity="0.55" stroke-linecap="round" stroke-linejoin="round"/><path d="M24 48H222" stroke="#24343b" stroke-width="0.7" fill="none" opacity="0.55" stroke-linecap="round" stroke-linejoin="round"/><path d="M24 64H222" stroke="#24343b" stroke-width="0.7" fill="none" opacity="0.55" stroke-linecap="round" stroke-linejoin="round"/><path d="M24 80H222" stroke="#24343b" stroke-width="0.7" fill="none" opacity="0.55" stroke-linecap="round" stroke-linejoin="round"/><path d="M24 96H222" stroke="#24343b" stroke-width="0.7" fill="none" opacity="0.55" stroke-linecap="round" stroke-linejoin="round"/><rect x="28" y="100" width="4" height="12" rx="1" fill="#2aa7ff" opacity="1"/><rect x="34" y="68" width="4" height="44" rx="1" fill="#2aa7ff" opacity="1" filter="url(#glowBlue)"/><rect x="40" y="88" width="4" height="24" rx="1" fill="#2aa7ff" opacity="1"/><rect x="46" y="84" width="4" height="28" rx="1" fill="#2aa7ff" opacity="1"/><rect x="52" y="78" width="4" height="34" rx="1" fill="#2aa7ff" opacity="1"/><rect x="58" y="92" width="4" height="20" rx="1" fill="#2aa7ff" opacity="1"/><rect x="64" y="64" width="4" height="48" rx="1" fill="#2aa7ff" opacity="1" filter="url(#glowBlue)"/><rect x="70" y="84" width="4" height="28" rx="1" fill="#2aa7ff" opacity="1"/><rect x="76" y="91" width="4" height="21" rx="1" fill="#2aa7ff" opacity="1"/><rect x="82" y="82" width="4" height="30" rx="1" fill="#2aa7ff" opacity="1"/><rect x="88" y="61" width="4" height="51" rx="1" fill="#2aa7ff" opacity="1" filter="url(#glowBlue)"/><rect x="94" y="79" width="4" height="33" rx="1" fill="#2aa7ff" opacity="1"/><rect x="100" y="94" width="4" height="18" rx="1" fill="#2aa7ff" opacity="1"/><rect x="106" y="70" width="4" height="42" rx="1" fill="#2aa7ff" opacity="1"/><rect x="112" y="92" width="4" height="20" rx="1" fill="#2aa7ff" opacity="1"/><rect x="118" y="86" width="4" height="26" rx="1" fill="#2aa7ff" opacity="1"/><rect x="124" y="90" width="4" height="22" rx="1" fill="#2aa7ff" opacity="1"/><rect x="130" y="65" width="4" height="47" rx="1" fill="#2aa7ff" opacity="1" filter="url(#glowBlue)"/><rect x="136" y="80" width="4" height="32" rx="1" fill="#2aa7ff" opacity="1"/><rect x="142" y="94" width="4" height="18" rx="1" fill="#2aa7ff" opacity="1"/><rect x="148" y="88" width="4" height="24" rx="1" fill="#2aa7ff" opacity="1"/><rect x="154" y="83" width="4" height="29" rx="1" fill="#2aa7ff" opacity="1"/><rect x="160" y="77" width="4" height="35" rx="1" fill="#2aa7ff" opacity="1"/><rect x="166" y="92" width="4" height="20" rx="1" fill="#2aa7ff" opacity="1"/><rect x="172" y="94" width="4" height="18" rx="1" fill="#2aa7ff" opacity="1"/><rect x="178" y="89" width="4" height="23" rx="1" fill="#2aa7ff" opacity="1"/><rect x="184" y="81" width="4" height="31" rx="1" fill="#2aa7ff" opacity="1"/><rect x="190" y="92" width="4" height="20" rx="1" fill="#2aa7ff" opacity="1"/><rect x="196" y="96" width="4" height="16" rx="1" fill="#2aa7ff" opacity="1"/><rect x="202" y="99" width="4" height="13" rx="1" fill="#2aa7ff" opacity="1"/><text x="30" y="128" fill="#a1a5a6" font-family="Inter,Arial,sans-serif" font-size="7" font-weight="500" text-anchor="start" opacity="1">20   50   100   200   500   1k    2k    5k   10k   20k</text><circle cx="18" cy="18" r="1.8" fill="#d8c6a0" opacity="1"/><circle cx="226" cy="18" r="1.8" fill="#d8c6a0" opacity="1"/>
</svg>