<svg xmlns="http://www.w3.org/2000/svg" width="244" height="126" viewBox="0 0 244 126" fill="none" >
<defs>
<filter id="shadow" x="-20%" y="-20%" width="140%" height="150%"><feDropShadow dx="0" dy="8" stdDeviation="8" flood-color="#000" flood-opacity="0.55"/></filter>
<filter id="softShadow" x="-30%" y="-30%" width="160%" height="160%"><feDropShadow dx="0" dy="4" stdDeviation="5" flood-color="#000" flood-opacity="0.50"/></filter>
<filter id="glowGreen" x="-40%" y="-40%" width="180%" height="180%"><feDropShadow dx="0" dy="0" stdDeviation="4" flood-color="#8be83b" flood-opacity="0.85"/></filter>
<filter id="glowBlue" x="-50%" y="-50%" width="200%" height="200%"><feDropShadow dx="0" dy="0" stdDeviation="6" flood-color="#57c7ff" flood-opacity="0.8"/></filter>
<filter id="glowRed" x="-50%" y="-50%" width="200%" height="200%"><feDropShadow dx="0" dy="0" stdDeviation="5" flood-color="#ff3b35" flood-opacity="0.75"/></filter>
<linearGradient id="rackFace" x1="0" y1="0" x2="0" y2="1"><stop offset="0" stop-color="#2a2520"/><stop offset="0.45" stop-color="#111110"/><stop offset="1" stop-color="#060606"/></linearGradient>
<linearGradient id="rackBevel" x1="0" y1="0" x2="0" y2="1"><stop offset="0" stop-color="#6d5b45"/><stop offset="0.12" stop-color="#1f1a15"/><stop offset="0.88" stop-color="#070707"/><stop offset="1" stop-color="#403522"/></linearGradient>
<linearGradient id="paper" x1="0" y1="0" x2="1" y2="1"><stop offset="0" stop-color="#f7ecd7"/><stop offset="0.55" stop-color="#eadabf"/><stop offset="1" stop-color="#c9aa7b"/></linearGradient>
<linearGradient id="paperEdge" x1="0" y1="0" x2="0" y2="1"><stop offset="0" stop-color="#fff8e8"/><stop offset="1" stop-color="#c6a06f"/></linearGradient>
<linearGradient id="goldCard" x1="0" y1="0" x2="0" y2="1"><stop offset="0" stop-color="#fae5aa"/><stop offset="1" stop-color="#caa65d"/></linearGradient>
<linearGradient id="blueButton" x1="0" y1="0" x2="0" y2="1"><stop offset="0" stop-color="#1d6b93"/><stop offset="1" stop-color="#0a2638"/></linearGradient>
<radialGradient id="glassAmber" cx="35%" cy="28%" r="70%"><stop offset="0" stop-color="#fff5c7"/><stop offset="0.35" stop-color="#f6b337"/><stop offset="1" stop-color="#4d1f04"/></radialGradient>
<radialGradient id="lampGlow" cx="50%" cy="40%" r="60%"><stop offset="0" stop-color="#fff5c7" stop-opacity="0.95"/><stop offset="0.6" stop-color="#ffb546" stop-opacity="0.25"/><stop offset="1" stop-color="#ffb546" stop-opacity="0"/></radialGradient>

</defs>
<rect x="0" y="0" width="244" height="126" rx="4" fill="url(#rackFace)" opacity="1" stroke="#8c6135" stroke-width="1.3" filter="url(#shadow)"/><text x="14" y="22" fill="#f0e4c9" font-family="Inter,Arial,sans-serif" font-size="11" font-weight="700" text-anchor="start" opacity="1">INSERT PATH MONITOR</text><text x="14" y="54" fill="#c8b99d" font-family="Inter,Arial,sans-serif" font-size="12" font-weight="600" text-anchor="start" opacity="1">SEND</text><rect x="72" y="43" width="4" height="14" rx="1" fill="#73dd3c" opacity="1"/><rect x="78" y="43" width="4" height="14" rx="1" fill="#73dd3c" opacity="1"/><rect x="84" y="43" width="4" height="14" rx="1" fill="#73dd3c" opacity="1"/><rect x="90" y="43" width="4" height="14" rx="1" fill="#73dd3c" opacity="1"/><rect x="96" y="43" width="4" height="14" rx="1" fill="#73dd3c" opacity="1"/><rect x="102" y="43" width="4" height="14" rx="1" fill="#73dd3c" opacity="1"/><rect x="108" y="43" width="4" height="14" rx="1" fill="#73dd3c" opacity="1"/><rect x="114" y="43" width="4" height="14" rx="1" fill="#73dd3c" opacity="1"/><rect x="120" y="43" width="4" height="14" rx="1" fill="#73dd3c" opacity="1"/><rect x="126" y="43" width="4" height="14" rx="1" fill="#73dd3c" opacity="1"/><rect x="132" y="43" width="4" height="14" rx="1" fill="#73dd3c" opacity="1"/><rect x="138" y="43" width="4" height="14" rx="1" fill="#73dd3c" opacity="1"/><rect x="144" y="43" width="4" height="14" rx="1" fill="#73dd3c" opacity="1"/><rect x="150" y="43" width="4" height="14" rx="1" fill="#73dd3c" opacity="1"/><rect x="156" y="43" width="4" height="14" rx="1" fill="#73dd3c" opacity="1"/><rect x="162" y="43" width="4" height="14" rx="1" fill="#e8cc35" opacity="1"/><rect x="168" y="43" width="4" height="14" rx="1" fill="#e8cc35" opacity="1"/><rect x="174" y="43" width="4" height="14" rx="1" fill="#e8cc35" opacity="1"/><rect x="180" y="43" width="4" height="14" rx="1" fill="#e8cc35" opacity="1"/><rect x="186" y="43" width="4" height="14" rx="1" fill="#e8cc35" opacity="1"/><rect x="192" y="43" width="4" height="14" rx="1" fill="#e8cc35" opacity="1"/><rect x="198" y="43" width="4" height="14" rx="1" fill="#d3432f" opacity="1"/><rect x="204" y="43" width="4" height="14" rx="1" fill="#d3432f" opacity="1"/><rect x="210" y="43" width="4" height="14" rx="1" fill="#d3432f" opacity="1"/><rect x="216" y="43" width="4" height="14" rx="1" fill="#d3432f" opacity="0.4"/><rect x="222" y="43" width="4" height="14" rx="1" fill="#d3432f" opacity="0.4"/><text x="72" y="68" fill="#a89b82" font-family="Inter,Arial,sans-serif" font-size="7" font-weight="500" text-anchor="start" opacity="1">-60    -40    -20    -10    -6    -3     0   +3</text><text x="14" y="94" fill="#c8b99d" font-family="Inter,Arial,sans-serif" font-size="12" font-weight="600" text-anchor="start" opacity="1">RETURN</text><rect x="72" y="83" width="4" height="14" rx="1" fill="#73dd3c" opacity="1"/><rect x="78" y="83" width="4" height="14" rx="1" fill="#73dd3c" opacity="1"/><rect x="84" y="83" width="4" height="14" rx="1" fill="#73dd3c" opacity="1"/><rect x="90" y="83" width="4" height="14" rx="1" fill="#73dd3c" opacity="1"/><rect x="96" y="83" width="4" height="14" rx="1" fill="#73dd3c" opacity="1"/><rect x="102" y="83" width="4" height="14" rx="1" fill="#73dd3c" opacity="1"/><rect x="108" y="83" width="4" height="14" rx="1" fill="#73dd3c" opacity="1"/><rect x="114" y="83" width="4" height="14" rx="1" fill="#73dd3c" opacity="1"/><rect x="120" y="83" width="4" height="14" rx="1" fill="#73dd3c" opacity="1"/><rect x="126" y="83" width="4" height="14" rx="1" fill="#73dd3c" opacity="1"/><rect x="132" y="83" width="4" height="14" rx="1" fill="#73dd3c" opacity="1"/><rect x="138" y="83" width="4" height="14" rx="1" fill="#73dd3c" opacity="1"/><rect x="144" y="83" width="4" height="14" rx="1" fill="#73dd3c" opacity="1"/><rect x="150" y="83" width="4" height="14" rx="1" fill="#73dd3c" opacity="1"/><rect x="156" y="83" width="4" height="14" rx="1" fill="#73dd3c" opacity="1"/><rect x="162" y="83" width="4" height="14" rx="1" fill="#e8cc35" opacity="1"/><rect x="168" y="83" width="4" height="14" rx="1" fill="#e8cc35" opacity="1"/><rect x="174" y="83" width="4" height="14" rx="1" fill="#e8cc35" opacity="1"/><rect x="180" y="83" width="4" height="14" rx="1" fill="#e8cc35" opacity="1"/><rect x="186" y="83" width="4" height="14" rx="1" fill="#e8cc35" opacity="1"/><rect x="192" y="83" width="4" height="14" rx="1" fill="#e8cc35" opacity="1"/><rect x="198" y="83" width="4" height="14" rx="1" fill="#d3432f" opacity="1"/><rect x="204" y="83" width="4" height="14" rx="1" fill="#d3432f" opacity="1"/><rect x="210" y="83" width="4" height="14" rx="1" fill="#d3432f" opacity="1"/><rect x="216" y="83" width="4" height="14" rx="1" fill="#d3432f" opacity="0.4"/><rect x="222" y="83" width="4" height="14" rx="1" fill="#d3432f" opacity="0.4"/><text x="72" y="108" fill="#a89b82" font-family="Inter,Arial,sans-serif" font-size="7" font-weight="500" text-anchor="start" opacity="1">-60    -40    -20    -10    -6    -3     0   +3</text><circle cx="10" cy="10" r="2" fill="#d8c6a0" opacity="1"/><circle cx="234" cy="10" r="2" fill="#d8c6a0" opacity="1"/><circle cx="10" cy="116" r="2" fill="#d8c6a0" opacity="1"/><circle cx="234" cy="116" r="2" fill="#d8c6a0" opacity="1"/>
</svg>