<svg xmlns="http://www.w3.org/2000/svg" width="108" height="214" viewBox="0 0 108 214" fill="none" >
<defs>
<filter id="shadow" x="-20%" y="-20%" width="140%" height="150%"><feDropShadow dx="0" dy="8" stdDeviation="8" flood-color="#000" flood-opacity="0.55"/></filter>
<filter id="softShadow" x="-30%" y="-30%" width="160%" height="160%"><feDropShadow dx="0" dy="4" stdDeviation="5" flood-color="#000" flood-opacity="0.50"/></filter>
<filter id="glowGreen" x="-40%" y="-40%" width="180%" height="180%"><feDropShadow dx="0" dy="0" stdDeviation="4" flood-color="#8be83b" flood-opacity="0.85"/></filter>
<filter id="glowBlue" x="-50%" y="-50%" width="200%" height="200%"><feDropShadow dx="0" dy="0" stdDeviation="6" flood-color="#57c7ff" flood-opacity="0.8"/></filter>
<filter id="glowRed" x="-50%" y="-50%" width="200%" height="200%"><feDropShadow dx="0" dy="0" stdDeviation="5" flood-color="#ff3b35" flood-opacity="0.75"/></filter>
<linearGradient id="rackFace" x1="0" y1="0" x2="0" y2="1"><stop offset="0" stop-color="#2a2520"/><stop offset="0.45" stop-color="#111110"/><stop offset="1" stop-color="#060606"/></linearGradient>
<linearGradient id="rackBevel" x1="0" y1="0" x2="0" y2="1"><stop offset="0" stop-color="#6d5b45"/><stop offset="0.12" stop-color="#1f1a15"/><stop offset="0.88" stop-color="#070707"/><stop offset="1" stop-color="#403522"/></linearGradient>
<linearGradient id="paper" x1="0" y1="0" x2="1" y2="1"><stop offset="0" stop-color="#f7ecd7"/><stop offset="0.55" stop-color="#eadabf"/><stop offset="1" stop-color="#c9aa7b"/></linearGradient>
<linearGradient id="paperEdge" x1="0" y1="0" x2="0" y2="1"><stop offset="0" stop-color="#fff8e8"/><stop offset="1" stop-color="#c6a06f"/></linearGradient>
<linearGradient id="goldCard" x1="0" y1="0" x2="0" y2="1"><stop offset="0" stop-color="#fae5aa"/><stop offset="1" stop-color="#caa65d"/></linearGradient>
<linearGradient id="blueButton" x1="0" y1="0" x2="0" y2="1"><stop offset="0" stop-color="#1d6b93"/><stop offset="1" stop-color="#0a2638"/></linearGradient>
<radialGradient id="glassAmber" cx="35%" cy="28%" r="70%"><stop offset="0" stop-color="#fff5c7"/><stop offset="0.35" stop-color="#f6b337"/><stop offset="1" stop-color="#4d1f04"/></radialGradient>
<radialGradient id="lampGlow" cx="50%" cy="40%" r="60%"><stop offset="0" stop-color="#fff5c7" stop-opacity="0.95"/><stop offset="0.6" stop-color="#ffb546" stop-opacity="0.25"/><stop offset="1" stop-color="#ffb546" stop-opacity="0"/></radialGradient>

</defs>
<rect x="0" y="0" width="108" height="214" rx="5" fill="url(#rackFace)" opacity="1" stroke="#6e4e2c" stroke-width="1.3" filter="url(#shadow)"/><text x="54" y="24" fill="#f0e4c9" font-family="Inter,Arial,sans-serif" font-size="11" font-weight="700" text-anchor="middle" opacity="1">OVERALL LEVEL</text><rect x="20" y="42" width="68" height="136" rx="3" fill="#030302" opacity="1" stroke="#24221a" stroke-width="1"/><rect x="38" y="158" width="7" height="3" rx="1" fill="#6de642" opacity="1"/><rect x="38" y="153" width="7" height="3" rx="1" fill="#6de642" opacity="1"/><rect x="38" y="148" width="7" height="3" rx="1" fill="#6de642" opacity="1"/><rect x="38" y="143" width="7" height="3" rx="1" fill="#6de642" opacity="1"/><rect x="38" y="138" width="7" height="3" rx="1" fill="#6de642" opacity="1"/><rect x="38" y="133" width="7" height="3" rx="1" fill="#6de642" opacity="1"/><rect x="38" y="128" width="7" height="3" rx="1" fill="#6de642" opacity="1"/><rect x="38" y="123" width="7" height="3" rx="1" fill="#6de642" opacity="1"/><rect x="38" y="118" width="7" height="3" rx="1" fill="#6de642" opacity="1"/><rect x="38" y="113" width="7" height="3" rx="1" fill="#6de642" opacity="1"/><rect x="38" y="108" width="7" height="3" rx="1" fill="#6de642" opacity="1"/><rect x="38" y="103" width="7" height="3" rx="1" fill="#f3d348" opacity="1"/><rect x="38" y="98" width="7" height="3" rx="1" fill="#f3d348" opacity="1"/><rect x="38" y="93" width="7" height="3" rx="1" fill="#f3d348" opacity="1"/><rect x="38" y="88" width="7" height="3" rx="1" fill="#f3d348" opacity="1"/><rect x="38" y="83" width="7" height="3" rx="1" fill="#f3d348" opacity="1"/><rect x="38" y="78" width="7" height="3" rx="1" fill="#d3312e" opacity="1"/><rect x="38" y="73" width="7" height="3" rx="1" fill="#d3312e" opacity="1"/><rect x="38" y="68" width="7" height="3" rx="1" fill="#172014" opacity="0.45"/><rect x="38" y="63" width="7" height="3" rx="1" fill="#172014" opacity="0.45"/><rect x="62" y="158" width="7" height="3" rx="1" fill="#6de642" opacity="1"/><rect x="62" y="153" width="7" height="3" rx="1" fill="#6de642" opacity="1"/><rect x="62" y="148" width="7" height="3" rx="1" fill="#6de642" opacity="1"/><rect x="62" y="143" width="7" height="3" rx="1" fill="#6de642" opacity="1"/><rect x="62" y="138" width="7" height="3" rx="1" fill="#6de642" opacity="1"/><rect x="62" y="133" width="7" height="3" rx="1" fill="#6de642" opacity="1"/><rect x="62" y="128" width="7" height="3" rx="1" fill="#6de642" opacity="1"/><rect x="62" y="123" width="7" height="3" rx="1" fill="#6de642" opacity="1"/><rect x="62" y="118" width="7" height="3" rx="1" fill="#6de642" opacity="1"/><rect x="62" y="113" width="7" height="3" rx="1" fill="#6de642" opacity="1"/><rect x="62" y="108" width="7" height="3" rx="1" fill="#6de642" opacity="1"/><rect x="62" y="103" width="7" height="3" rx="1" fill="#f3d348" opacity="1"/><rect x="62" y="98" width="7" height="3" rx="1" fill="#f3d348" opacity="1"/><rect x="62" y="93" width="7" height="3" rx="1" fill="#f3d348" opacity="1"/><rect x="62" y="88" width="7" height="3" rx="1" fill="#f3d348" opacity="1"/><rect x="62" y="83" width="7" height="3" rx="1" fill="#f3d348" opacity="1"/><rect x="62" y="78" width="7" height="3" rx="1" fill="#d3312e" opacity="1"/><rect x="62" y="73" width="7" height="3" rx="1" fill="#d3312e" opacity="1"/><rect x="62" y="68" width="7" height="3" rx="1" fill="#172014" opacity="0.45"/><rect x="62" y="63" width="7" height="3" rx="1" fill="#172014" opacity="0.45"/><text x="40" y="194" fill="#fff0ce" font-family="Inter,Arial,sans-serif" font-size="10" font-weight="700" text-anchor="middle" opacity="1">L</text><text x="64" y="194" fill="#fff0ce" font-family="Inter,Arial,sans-serif" font-size="10" font-weight="700" text-anchor="middle" opacity="1">R</text><text x="96" y="52" fill="#c7b89a" font-family="Inter,Arial,sans-serif" font-size="8" font-weight="600" text-anchor="end" opacity="1">0</text><text x="96" y="66" fill="#c7b89a" font-family="Inter,Arial,sans-serif" font-size="8" font-weight="600" text-anchor="end" opacity="1">-6</text><text x="96" y="80" fill="#c7b89a" font-family="Inter,Arial,sans-serif" font-size="8" font-weight="600" text-anchor="end" opacity="1">-12</text><text x="96" y="94" fill="#c7b89a" font-family="Inter,Arial,sans-serif" font-size="8" font-weight="600" text-anchor="end" opacity="1">-18</text><text x="96" y="108" fill="#c7b89a" font-family="Inter,Arial,sans-serif" font-size="8" font-weight="600" text-anchor="end" opacity="1">-24</text><text x="96" y="122" fill="#c7b89a" font-family="Inter,Arial,sans-serif" font-size="8" font-weight="600" text-anchor="end" opacity="1">-30</text><text x="96" y="136" fill="#c7b89a" font-family="Inter,Arial,sans-serif" font-size="8" font-weight="600" text-anchor="end" opacity="1">-36</text><text x="96" y="150" fill="#c7b89a" font-family="Inter,Arial,sans-serif" font-size="8" font-weight="600" text-anchor="end" opacity="1">-42</text><text x="96" y="164" fill="#c7b89a" font-family="Inter,Arial,sans-serif" font-size="8" font-weight="600" text-anchor="end" opacity="1">-60</text>
</svg>