<svg xmlns="http://www.w3.org/2000/svg" width="276" height="152" viewBox="0 0 276 152" fill="none" >
<defs>
<filter id="shadow" x="-20%" y="-20%" width="140%" height="150%"><feDropShadow dx="0" dy="8" stdDeviation="8" flood-color="#000" flood-opacity="0.55"/></filter>
<filter id="softShadow" x="-30%" y="-30%" width="160%" height="160%"><feDropShadow dx="0" dy="4" stdDeviation="5" flood-color="#000" flood-opacity="0.50"/></filter>
<filter id="glowGreen" x="-40%" y="-40%" width="180%" height="180%"><feDropShadow dx="0" dy="0" stdDeviation="4" flood-color="#8be83b" flood-opacity="0.85"/></filter>
<filter id="glowBlue" x="-50%" y="-50%" width="200%" height="200%"><feDropShadow dx="0" dy="0" stdDeviation="6" flood-color="#57c7ff" flood-opacity="0.8"/></filter>
<filter id="glowRed" x="-50%" y="-50%" width="200%" height="200%"><feDropShadow dx="0" dy="0" stdDeviation="5" flood-color="#ff3b35" flood-opacity="0.75"/></filter>
<linearGradient id="rackFace" x1="0" y1="0" x2="0" y2="1"><stop offset="0" stop-color="#2a2520"/><stop offset="0.45" stop-color="#111110"/><stop offset="1" stop-color="#060606"/></linearGradient>
<linearGradient id="rackBevel" x1="0" y1="0" x2="0" y2="1"><stop offset="0" stop-color="#6d5b45"/><stop offset="0.12" stop-color="#1f1a15"/><stop offset="0.88" stop-color="#070707"/><stop offset="1" stop-color="#403522"/></linearGradient>
<linearGradient id="paper" x1="0" y1="0" x2="1" y2="1"><stop offset="0" stop-color="#f7ecd7"/><stop offset="0.55" stop-color="#eadabf"/><stop offset="1" stop-color="#c9aa7b"/></linearGradient>
<linearGradient id="paperEdge" x1="0" y1="0" x2="0" y2="1"><stop offset="0" stop-color="#fff8e8"/><stop offset="1" stop-color="#c6a06f"/></linearGradient>
<linearGradient id="goldCard" x1="0" y1="0" x2="0" y2="1"><stop offset="0" stop-color="#fae5aa"/><stop offset="1" stop-color="#caa65d"/></linearGradient>
<linearGradient id="blueButton" x1="0" y1="0" x2="0" y2="1"><stop offset="0" stop-color="#1d6b93"/><stop offset="1" stop-color="#0a2638"/></linearGradient>
<radialGradient id="glassAmber" cx="35%" cy="28%" r="70%"><stop offset="0" stop-color="#fff5c7"/><stop offset="0.35" stop-color="#f6b337"/><stop offset="1" stop-color="#4d1f04"/></radialGradient>
<radialGradient id="lampGlow" cx="50%" cy="40%" r="60%"><stop offset="0" stop-color="#fff5c7" stop-opacity="0.95"/><stop offset="0.6" stop-color="#ffb546" stop-opacity="0.25"/><stop offset="1" stop-color="#ffb546" stop-opacity="0"/></radialGradient>

</defs>
<rect x="0" y="0" width="276" height="152" rx="5" fill="url(#rackFace)" opacity="1" stroke="#28485d" stroke-width="1.3" filter="url(#shadow)"/><text x="18" y="25" fill="#bfcbd1" font-family="Inter,Arial,sans-serif" font-size="12" font-weight="700" text-anchor="start" opacity="1">SPECTRUM VIEW</text><rect x="24" y="40" width="228" height="88" rx="3" fill="#030503" opacity="1" stroke="#183026" stroke-width="1"/><path d="M38 45V123" stroke="#173826" stroke-width="0.7" fill="none" opacity="0.55" stroke-linecap="round" stroke-linejoin="round"/><path d="M62 45V123" stroke="#173826" stroke-width="0.7" fill="none" opacity="0.55" stroke-linecap="round" stroke-linejoin="round"/><path d="M86 45V123" stroke="#173826" stroke-width="0.7" fill="none" opacity="0.55" stroke-linecap="round" stroke-linejoin="round"/><path d="M110 45V123" stroke="#173826" stroke-width="0.7" fill="none" opacity="0.55" stroke-linecap="round" stroke-linejoin="round"/><path d="M134 45V123" stroke="#173826" stroke-width="0.7" fill="none" opacity="0.55" stroke-linecap="round" stroke-linejoin="round"/><path d="M158 45V123" stroke="#173826" stroke-width="0.7" fill="none" opacity="0.55" stroke-linecap="round" stroke-linejoin="round"/><path d="M182 45V123" stroke="#173826" stroke-width="0.7" fill="none" opacity="0.55" stroke-linecap="round" stroke-linejoin="round"/><path d="M206 45V123" stroke="#173826" stroke-width="0.7" fill="none" opacity="0.55" stroke-linecap="round" stroke-linejoin="round"/><path d="M230 45V123" stroke="#173826" stroke-width="0.7" fill="none" opacity="0.55" stroke-linecap="round" stroke-linejoin="round"/><path d="M30 55H248" stroke="#173826" stroke-width="0.7" fill="none" opacity="0.55" stroke-linecap="round" stroke-linejoin="round"/><path d="M30 72H248" stroke="#173826" stroke-width="0.7" fill="none" opacity="0.55" stroke-linecap="round" stroke-linejoin="round"/><path d="M30 89H248" stroke="#173826" stroke-width="0.7" fill="none" opacity="0.55" stroke-linecap="round" stroke-linejoin="round"/><path d="M30 106H248" stroke="#173826" stroke-width="0.7" fill="none" opacity="0.55" stroke-linecap="round" stroke-linejoin="round"/><rect x="38" y="117" width="5" height="6" rx="1" fill="#4dba22" opacity="1"/><rect x="45" y="112" width="5" height="11" rx="1" fill="#4dba22" opacity="1"/><rect x="52" y="95" width="5" height="28" rx="1" fill="#4dba22" opacity="1"/><rect x="59" y="73" width="5" height="50" rx="1" fill="#4dba22" opacity="1"/><rect x="66" y="55" width="5" height="68" rx="1" fill="#4dba22" opacity="1" filter="url(#glowGreen)"/><rect x="73" y="75" width="5" height="48" rx="1" fill="#4dba22" opacity="1"/><rect x="80" y="49" width="5" height="74" rx="1" fill="#4dba22" opacity="1" filter="url(#glowGreen)"/><rect x="87" y="78" width="5" height="45" rx="1" fill="#4dba22" opacity="1"/><rect x="94" y="70" width="5" height="53" rx="1" fill="#4dba22" opacity="1"/><rect x="101" y="88" width="5" height="35" rx="1" fill="#4dba22" opacity="1"/><rect x="108" y="92" width="5" height="31" rx="1" fill="#4dba22" opacity="1"/><rect x="115" y="94" width="5" height="29" rx="1" fill="#4dba22" opacity="1"/><rect x="122" y="97" width="5" height="26" rx="1" fill="#4dba22" opacity="1"/><rect x="129" y="99" width="5" height="24" rx="1" fill="#4dba22" opacity="1"/><rect x="136" y="103" width="5" height="20" rx="1" fill="#4dba22" opacity="1"/><rect x="143" y="105" width="5" height="18" rx="1" fill="#4dba22" opacity="1"/><rect x="150" y="102" width="5" height="21" rx="1" fill="#4dba22" opacity="1"/><rect x="157" y="89" width="5" height="34" rx="1" fill="#4dba22" opacity="1"/><rect x="164" y="65" width="5" height="58" rx="1" fill="#4dba22" opacity="1" filter="url(#glowGreen)"/><rect x="171" y="86" width="5" height="37" rx="1" fill="#4dba22" opacity="1"/><rect x="178" y="80" width="5" height="43" rx="1" fill="#4dba22" opacity="1"/><rect x="185" y="78" width="5" height="45" rx="1" fill="#4dba22" opacity="1"/><rect x="192" y="84" width="5" height="39" rx="1" fill="#4dba22" opacity="1"/><rect x="199" y="89" width="5" height="34" rx="1" fill="#4dba22" opacity="1"/><rect x="206" y="95" width="5" height="28" rx="1" fill="#4dba22" opacity="1"/><rect x="213" y="100" width="5" height="23" rx="1" fill="#4dba22" opacity="1"/><rect x="220" y="107" width="5" height="16" rx="1" fill="#4dba22" opacity="1"/><rect x="227" y="109" width="5" height="14" rx="1" fill="#4dba22" opacity="1"/><rect x="234" y="111" width="5" height="12" rx="1" fill="#4dba22" opacity="1"/><text x="30" y="139" fill="#89958e" font-family="Inter,Arial,sans-serif" font-size="7" font-weight="500" text-anchor="start" opacity="1">20    50   100   200   500   1k    2k    5k    10k    20k</text>
</svg>