<svg xmlns="http://www.w3.org/2000/svg" width="248" height="50" viewBox="0 0 248 50" fill="none" >
<defs>
<filter id="shadow" x="-20%" y="-20%" width="140%" height="150%"><feDropShadow dx="0" dy="8" stdDeviation="8" flood-color="#000" flood-opacity="0.55"/></filter>
<filter id="softShadow" x="-30%" y="-30%" width="160%" height="160%"><feDropShadow dx="0" dy="4" stdDeviation="5" flood-color="#000" flood-opacity="0.50"/></filter>
<filter id="glowGreen" x="-40%" y="-40%" width="180%" height="180%"><feDropShadow dx="0" dy="0" stdDeviation="4" flood-color="#8be83b" flood-opacity="0.85"/></filter>
<filter id="glowBlue" x="-50%" y="-50%" width="200%" height="200%"><feDropShadow dx="0" dy="0" stdDeviation="6" flood-color="#57c7ff" flood-opacity="0.8"/></filter>
<filter id="glowRed" x="-50%" y="-50%" width="200%" height="200%"><feDropShadow dx="0" dy="0" stdDeviation="5" flood-color="#ff3b35" flood-opacity="0.75"/></filter>
<linearGradient id="rackFace" x1="0" y1="0" x2="0" y2="1"><stop offset="0" stop-color="#2a2520"/><stop offset="0.45" stop-color="#111110"/><stop offset="1" stop-color="#060606"/></linearGradient>
<linearGradient id="rackBevel" x1="0" y1="0" x2="0" y2="1"><stop offset="0" stop-color="#6d5b45"/><stop offset="0.12" stop-color="#1f1a15"/><stop offset="0.88" stop-color="#070707"/><stop offset="1" stop-color="#403522"/></linearGradient>
<linearGradient id="paper" x1="0" y1="0" x2="1" y2="1"><stop offset="0" stop-color="#f7ecd7"/><stop offset="0.55" stop-color="#eadabf"/><stop offset="1" stop-color="#c9aa7b"/></linearGradient>
<linearGradient id="paperEdge" x1="0" y1="0" x2="0" y2="1"><stop offset="0" stop-color="#fff8e8"/><stop offset="1" stop-color="#c6a06f"/></linearGradient>
<linearGradient id="goldCard" x1="0" y1="0" x2="0" y2="1"><stop offset="0" stop-color="#fae5aa"/><stop offset="1" stop-color="#caa65d"/></linearGradient>
<linearGradient id="blueButton" x1="0" y1="0" x2="0" y2="1"><stop offset="0" stop-color="#1d6b93"/><stop offset="1" stop-color="#0a2638"/></linearGradient>
<radialGradient id="glassAmber" cx="35%" cy="28%" r="70%"><stop offset="0" stop-color="#fff5c7"/><stop offset="0.35" stop-color="#f6b337"/><stop offset="1" stop-color="#4d1f04"/></radialGradient>
<radialGradient id="lampGlow" cx="50%" cy="40%" r="60%"><stop offset="0" stop-color="#fff5c7" stop-opacity="0.95"/><stop offset="0.6" stop-color="#ffb546" stop-opacity="0.25"/><stop offset="1" stop-color="#ffb546" stop-opacity="0"/></radialGradient>

</defs>
<rect x="0" y="0" width="248" height="50" rx="10" fill="url(#blueButton)" opacity="1" stroke="#54aada" stroke-width="1.2" filter="url(#shadow)"/><path d="M44 13 C32 14 34 34 44 34 C54 34 56 14 44 13ZM44 34 V42 M36 42H52 M34 22 H28 M60 22H54" stroke="#f0e0b7" stroke-width="2" fill="none" opacity="1" stroke-linecap="round" stroke-linejoin="round"/><text x="130" y="31" fill="#f0e0b7" font-family="Inter,Arial,sans-serif" font-size="15" font-weight="700" text-anchor="middle" opacity="1">View Routing Matrix</text>
</svg>