<svg xmlns="http://www.w3.org/2000/svg" width="92" height="86" viewBox="0 0 92 86" role="img" aria-hidden="true" focusable="false" class="sf-broadcast-svg" data-sf-asset="source-device-icon">

  <defs>
    <linearGradient id="sfMetalDark" x1="0" x2="0" y1="0" y2="1">
      <stop offset="0" stop-color="#2b1d10"/>
      <stop offset="0.16" stop-color="#17120c"/>
      <stop offset="0.58" stop-color="#07090b"/>
      <stop offset="1" stop-color="#020303"/>
    </linearGradient>
    <linearGradient id="sfBlueGlass" x1="0" x2="0" y1="0" y2="1">
      <stop offset="0" stop-color="#123348"/>
      <stop offset="0.14" stop-color="#0d2433"/>
      <stop offset="0.64" stop-color="#071016"/>
      <stop offset="1" stop-color="#030506"/>
    </linearGradient>
    <linearGradient id="sfRedWell" x1="0" x2="0" y1="0" y2="1">
      <stop offset="0" stop-color="#32140f"/>
      <stop offset="0.48" stop-color="#23100d"/>
      <stop offset="1" stop-color="#090504"/>
    </linearGradient>
    <linearGradient id="sfWarmEdge" x1="0" x2="1" y1="0" y2="1">
      <stop offset="0" stop-color="#f2c46d" stop-opacity="0.38"/>
      <stop offset="0.4" stop-color="#9b6f32" stop-opacity="0.22"/>
      <stop offset="1" stop-color="#000000" stop-opacity="0.25"/>
    </linearGradient>
    <linearGradient id="sfGloss" x1="0" x2="0" y1="0" y2="1">
      <stop offset="0" stop-color="#ffffff" stop-opacity="0.16"/>
      <stop offset="0.55" stop-color="#ffffff" stop-opacity="0.04"/>
      <stop offset="1" stop-color="#ffffff" stop-opacity="0"/>
    </linearGradient>
    <radialGradient id="sfAccentGlow" cx="50%" cy="50%" r="55%">
      <stop offset="0" stop-color="#7fe45f" stop-opacity="0.72"/>
      <stop offset="0.55" stop-color="#7fe45f" stop-opacity="0.25"/>
      <stop offset="1" stop-color="#000000" stop-opacity="0"/>
    </radialGradient>
    <filter id="sfDrop" x="-30%" y="-30%" width="160%" height="170%">
      <feDropShadow dx="0" dy="10" stdDeviation="9" flood-color="#000000" flood-opacity="0.58"/>
    </filter>
    <filter id="sfSoftGlow" x="-80%" y="-80%" width="260%" height="260%">
      <feGaussianBlur stdDeviation="4" result="blur"/>
      <feColorMatrix in="blur" type="matrix" values="1 0 0 0 0  0 1 0 0 0  0 0 1 0 0  0 0 0 .75 0" result="glow"/>
      <feMerge><feMergeNode in="glow"/><feMergeNode in="SourceGraphic"/></feMerge>
    </filter>
    <filter id="sfInner" x="-20%" y="-20%" width="140%" height="140%">
      <feOffset dx="0" dy="3"/>
      <feGaussianBlur stdDeviation="3" result="offset-blur"/>
      <feComposite operator="out" in="SourceGraphic" in2="offset-blur" result="inverse"/>
      <feFlood flood-color="#000000" flood-opacity="0.68" result="color"/>
      <feComposite operator="in" in="color" in2="inverse" result="shadow"/>
      <feComposite operator="over" in="shadow" in2="SourceGraphic"/>
    </filter>
    <pattern id="sfGrain" width="12" height="12" patternUnits="userSpaceOnUse">
      <rect width="1" height="1" x="1" y="1" fill="#fff" opacity="0.035"/>
      <rect width="1" height="1" x="7" y="3" fill="#000" opacity="0.06"/>
      <rect width="1" height="1" x="4" y="9" fill="#fff" opacity="0.025"/>
      <rect width="1" height="1" x="10" y="10" fill="#000" opacity="0.05"/>
    </pattern>
  </defs>

  <g class="sf-source-device-icon" pointer-events="none">
    <rect x="5" y="8" width="82" height="72" rx="12" fill="#000" opacity=".32" filter="url(#sfDrop)"/>
    <rect x="0" y="0" width="82" height="72" rx="12" fill="#263f2a" stroke="#6c874f" stroke-opacity=".75"/>
    <rect x="9" y="9" width="26" height="38" rx="4" fill="#050908" stroke="#6ad65a" stroke-opacity=".32"/>
    <path d="M14 35 C18 20, 24 40, 30 16" stroke="#7fe45f" stroke-width="2" fill="none" opacity=".78"/>
    <rect x="48" y="10" width="10" height="6" rx="2" fill="#ffd45b"/>
    <rect x="48" y="24" width="10" height="6" rx="2" fill="#ffd45b" opacity=".82"/>
    <rect x="48" y="38" width="10" height="6" rx="2" fill="#26301c"/>
    <circle cx="20" cy="59" r="5" fill="#c7b991" stroke="#0d0b08"/>
    <circle cx="41" cy="59" r="5" fill="#c7b991" stroke="#0d0b08"/>
    <circle cx="62" cy="59" r="5" fill="#c7b991" stroke="#0d0b08"/>
    <rect x="4" y="4" width="74" height="16" rx="8" fill="#fff" opacity=".07"/>
  </g>
</svg>
