<svg xmlns="http://www.w3.org/2000/svg" width="132" height="138" viewBox="0 0 132 138" fill="none">
<defs>
  <filter id="shadow" x="-20%" y="-20%" width="140%" height="150%"><feDropShadow dx="0" dy="8" stdDeviation="8" flood-color="#000" flood-opacity="0.55"/></filter>
  <filter id="inner" x="-20%" y="-20%" width="140%" height="140%"><feGaussianBlur in="SourceAlpha" stdDeviation="1" result="blur"/><feOffset dx="0" dy="2"/><feComposite in2="SourceAlpha" operator="arithmetic" k2="-1" k3="1" result="inner"/><feColorMatrix in="inner" type="matrix" values="0 0 0 0 0 0 0 0 0 0 0 0 0 0 0 0 0 0 .55 0"/><feBlend in2="SourceGraphic" mode="normal"/></filter>
  <linearGradient id="ceramic" x1="0" y1="0" x2="0" y2="1"><stop offset="0" stop-color="#efe1c3"/><stop offset="0.42" stop-color="#cfc0a0"/><stop offset="1" stop-color="#9b8464"/></linearGradient>
  <linearGradient id="sideShade" x1="0" y1="0" x2="1" y2="0"><stop offset="0" stop-color="#ffffff" stop-opacity="0.26"/><stop offset="0.55" stop-color="#ffffff" stop-opacity="0"/><stop offset="1" stop-color="#4b3726" stop-opacity="0.38"/></linearGradient>
  <radialGradient id="coffee" cx="50%" cy="38%" r="60%"><stop offset="0" stop-color="#4c2d18"/><stop offset="1" stop-color="#1b0f08"/></radialGradient>
</defs>
<ellipse cx="65" cy="126" rx="44" ry="8" fill="#000" opacity="0.38"/>
<path d="M23 33 H93 V115 C93 123 85 128 65 130 C44 128 27 123 23 115 Z" fill="url(#ceramic)" stroke="#705b42" stroke-width="2" filter="url(#shadow)"/>
<path d="M31 42 H87 V112 C83 118 75 120 65 121 C51 120 38 117 31 112 Z" fill="url(#sideShade)" opacity="0.72"/>
<ellipse cx="58" cy="33" rx="35" ry="13" fill="#eadcbc" stroke="#705b42" stroke-width="2"/>
<ellipse cx="58" cy="34" rx="25" ry="8" fill="url(#coffee)" opacity="0.82"/>
<ellipse cx="48" cy="29" rx="12" ry="3" fill="#fff7df" opacity="0.45"/>
<path d="M93 55 C124 47 126 107 93 101" fill="none" stroke="#cfc0a0" stroke-width="13" stroke-linecap="round"/>
<path d="M94 63 C112 60 113 94 94 92" fill="none" stroke="#705b42" stroke-width="2.2" stroke-linecap="round"/>
<text x="58" y="69" fill="#0b3d72" font-family="Inter, Arial, sans-serif" font-size="16" font-weight="900" text-anchor="middle">done</text>
<text x="58" y="89" fill="#0b3d72" font-family="Inter, Arial, sans-serif" font-size="16" font-weight="900" text-anchor="middle">is</text>
<text x="58" y="109" fill="#0b3d72" font-family="Inter, Arial, sans-serif" font-size="16" font-weight="900" text-anchor="middle">good</text>
<path d="M33 48 C38 52 75 52 86 47" stroke="#f8edcf" stroke-width="2" opacity="0.25"/>
</svg>
